<?xml version="1.0" encoding="UTF-8" standalone="no"?>
<!-- Created with Inkscape (http://www.inkscape.org/) -->

<svg
   version="1.1"
   id="svg2"
   xml:space="preserve"
   width="800"
   height="266.66666"
   viewBox="0 0 800 266.66666"
   sodipodi:docname="people_12-01.eps"
   xmlns:inkscape="http://www.inkscape.org/namespaces/inkscape"
   xmlns:sodipodi="http://sodipodi.sourceforge.net/DTD/sodipodi-0.dtd"
   xmlns="http://www.w3.org/2000/svg"
   xmlns:svg="http://www.w3.org/2000/svg"><defs
     id="defs6" /><sodipodi:namedview
     id="namedview4"
     pagecolor="#ffffff"
     bordercolor="#666666"
     borderopacity="1.0"
     inkscape:pageshadow="2"
     inkscape:pageopacity="0.0"
     inkscape:pagecheckerboard="0" /><g
     id="g8"
     inkscape:groupmode="layer"
     inkscape:label="ink_ext_XXXXXX"
     transform="matrix(1.3333333,0,0,-1.3333333,0,266.66667)"><g
       id="g10"
       transform="scale(0.1)"><path
         d="m 764.52,231.988 c -13.602,-2.047 -27.215,-4.976 -40.797,-1.047 -17.289,5 -34.235,7.118 -51.594,3.329 -37.426,-8.149 -74.934,-10.782 -112.418,-9.321 -18.941,0.742 -37.875,2.571 -56.805,5.199 -17.433,2.422 -34.801,13.942 -52.445,14.614 -2.231,0.078 -4.453,0.09 -6.684,0.019 -23.789,-0.82 -47.468,-10.59 -71.074,-21.101 -11.808,-5.25 -23.609,-10.731 -35.437,-15.36 -7.125,-2.781 -23.106,1.11 -25.864,-33.75 -2.918,-36.84 24.121,-50.82 30.008,-55.769 11.074,-9.301 22.32,-15.43 33.613,-19.1799 22.637,-7.5117 45.426,-5.3516 68.075,0.5779 43.625,11.43 86.761,25.051 130.57,19.34 38.125,-4.98 76.215,-14.301 114.367,-16.551 26.66,-1.566 54.738,-6.8161 80.789,23.024 7.953,9.109 30.961,37.078 32.324,75.039 1.165,32.531 -13.82,32.097 -19.128,32.488 -2.168,0.16 -4.34,-0.07 -6.508,-0.238 -3.66,-0.27 -7.328,-0.762 -10.992,-1.313"
         style="fill:#efefed;fill-opacity:1;fill-rule:nonzero;stroke:none"
         id="path12" /><path
         d="m 486.77,221.18 c -28.118,-23.969 -58.805,-45.032 -91.286,-62.84 -1.683,-0.899 -8.515,0.219 -10.535,0.219 -5.261,0.23 -10.523,0.793 -15.789,1.679 -12.769,2.242 -1.125,13.114 3.582,18.602 6.164,7.172 12.883,13.66 18.821,20.949 1.343,1.563 2.574,3.242 3.808,4.93 7.055,9.402 12.656,19.703 17.246,30.57 11.988,28.781 16.914,60.602 19.043,91.512 0.449,8.289 -1.566,15.679 8.067,18.371 3.472,0.887 42.789,2.348 42.789,2.797 0.332,-3.59 0.554,-7.168 0.89,-10.75 -0.222,-0.68 -0.445,-1.348 -0.445,-2.008 -0.34,-16.359 -1.121,-32.711 -0.113,-48.961 0.449,-7.719 1.347,-15.449 3.027,-22.961 0.332,-1.559 0.668,-3.027 1.23,-4.59 1.79,-6.16 4.481,-12.429 5.153,-18.488 0.785,-7.27 1.008,-13.43 -5.488,-19.031"
         style="fill:#ed9bbc;fill-opacity:1;fill-rule:nonzero;stroke:none"
         id="path14" /><path
         d="m 486.77,221.18 c -28.118,-23.969 -58.805,-45.032 -91.286,-62.84 -1.683,-0.899 -8.515,0.219 -10.535,0.219 -5.261,0.23 -10.523,0.793 -15.789,1.679 -12.769,2.242 -1.125,13.114 3.582,18.602 6.164,7.172 12.883,13.66 18.821,20.949 1.343,1.563 2.574,3.242 3.808,4.93 0.113,-0.231 0.227,-0.449 0.336,-0.68 2.688,-3.469 7.059,-5.828 11.422,-6.5 7.055,-0.891 14.117,1.57 20.5,4.602 25.309,11.757 46.594,31.918 59.476,56.558 1.79,-6.16 4.481,-12.429 5.153,-18.488 0.785,-7.27 1.008,-13.43 -5.488,-19.031"
         style="fill:#1d1e21;fill-opacity:1;fill-rule:nonzero;stroke:none"
         id="path16" /><path
         d="m 731.953,141.09 c -5.039,-1.34 -10.305,-2.469 -15.453,-3.129 -2.02,-0.231 -8.742,-2.02 -10.531,-1.242 -34.051,14.562 -66.535,32.601 -96.887,53.769 -7.055,4.934 -7.281,11.203 -7.281,18.473 0,6.508 2.469,13.328 3.695,20.051 0.227,1.129 0.449,2.359 0.563,3.476 0.781,7.621 1.007,15.461 0.668,23.184 -0.45,16.238 -2.797,32.476 -4.813,48.617 -0.113,0.781 -0.336,1.449 -0.676,2.02 v 10.75 c 0,-0.34 39.321,2.011 42.789,1.339 9.86,-1.679 8.512,-9.296 9.86,-17.468 5.039,-30.578 12.992,-61.828 27.668,-89.27 6.605,-12.101 14.558,-23.531 24.414,-33.269 0.449,-0.45 0.894,-0.903 1.344,-1.352 6.273,-6.148 12.996,-11.641 19.375,-17.687 5.152,-5.043 17.816,-14.793 5.265,-18.262"
         style="fill:#ed9bbc;fill-opacity:1;fill-rule:nonzero;stroke:none"
         id="path18" /><path
         d="m 731.953,141.09 c -5.039,-1.34 -10.305,-2.469 -15.453,-3.129 -2.02,-0.231 -8.742,-2.02 -10.531,-1.242 -34.051,14.562 -66.535,32.601 -96.887,53.769 -7.055,4.934 -7.281,11.203 -7.281,18.473 0,6.508 2.469,13.328 3.695,20.051 6.496,-4.141 12.32,-13.321 16.02,-17.352 10.75,-11.871 25.089,-21.289 38.304,-30.14 0.336,-0.219 0.672,-0.45 1.121,-0.668 11.426,-7.731 33.493,-22.512 44.469,-7.731 0.895,1.238 1.453,2.469 1.903,3.918 6.273,-6.148 12.996,-11.641 19.375,-17.687 5.152,-5.043 17.816,-14.793 5.265,-18.262"
         style="fill:#1d1e21;fill-opacity:1;fill-rule:nonzero;stroke:none"
         id="path20" /><path
         d="m 792.652,1381.43 c -29.64,12.99 -55.64,33.38 -76.504,58.01 -22.472,26.53 -37.707,58.87 -50.339,91.02 -9.121,23.21 -17.391,46.9 -30.219,68.41 -20.586,34.54 -53.781,60.01 -94.02,66.18 5.895,8.97 16.535,14.09 27.215,15.07 11.465,1.05 23.637,-1.98 33.832,-7.17 17.133,-8.73 30.653,-22.99 44.879,-35.92 28.102,-25.57 61.813,-47.44 99.613,-51.23 27.661,-2.77 55.879,4.52 80.004,18.33 20.039,11.47 37.278,27.16 56.028,40.63 18.754,13.47 40.007,25.02 63.058,26.25 30.68,1.64 60.451,-16.07 77.951,-41.32 17.49,-25.25 23.79,-57 22.61,-87.7 -1.48,-38.45 -14.33,-76.54 -37.26,-107.44 -37.375,-50.39 -101.531,-73.96 -163.031,-67.58 -18.563,1.93 -36.688,6.95 -53.817,14.46"
         style="fill:#172642;fill-opacity:1;fill-rule:nonzero;stroke:none"
         id="path22" /><path
         d="m 615.523,1539.25 c -13.293,27.94 -1.582,58.26 5.59,86.53 -0.871,0.02 -1.644,0.04 -2.133,0.1 l -57.941,7.03 c -1.234,0.15 -12.332,2.61 -13.105,1.59 -4.305,-5.73 -4.071,-13.39 -4.86,-21.25 -1.242,-12.46 -1.711,-24.64 -4.582,-35.93 -2.933,-11.53 -10.465,-20.52 -18.027,-29.37 -8.594,-10.04 -17.121,-19.74 -26.449,-29.14 -7.661,-23.37 10.476,-57.67 22.988,-75.88 14.68,-21.39 38.605,-34.54 64.262,-33.83 28.547,0.79 49.109,19.26 60.746,45.95 4.804,11.01 8.218,22.63 10.703,34.42 1.098,5.21 2.676,10.42 3.578,15.69 -17.113,6.61 -32.637,17.01 -40.77,34.09"
         style="fill:#e56e98;fill-opacity:1;fill-rule:nonzero;stroke:none"
         id="path24" /><path
         d="m 652.652,1683.41 c -3.078,1.16 -5.988,1.44 -8.761,1.13 -0.625,8.46 -2.442,16.78 -6.801,23.6 -7.738,12.08 -18.219,23.32 -30.039,31.47 -10.875,7.5 -23.317,12.53 -36.02,15.96 -11.453,3.09 -24.179,6.32 -35.277,0.54 -11.106,-5.78 -17.863,-17.64 -22.496,-28.8 -10.195,-24.54 -12.883,-51.6 -7.707,-77.67 2.609,-13.13 7.094,-25.86 13.035,-37.86 5.137,-10.39 11.617,-25.69 22.898,-30.53 13.434,-5.76 32.418,1.44 45.008,6.75 16.199,6.84 31.317,17.27 41.836,31.52 0.129,0.17 0.235,0.36 0.363,0.53 14.786,5.46 28.012,15.27 34.899,29.59 6.027,12.54 3.086,28.47 -10.938,33.77"
         style="fill:#f086a5;fill-opacity:1;fill-rule:nonzero;stroke:none"
         id="path26" /><path
         d="m 631.238,1769.19 c -12.472,11.05 -29.187,17.29 -45.906,17.46 -23.297,0.24 -47.512,-10.46 -61.93,-28.93 -1.797,-2.29 -9.082,-10.03 -7.125,-13.33 0.387,-0.66 0.703,-1.28 1.149,-1.94 14.355,-21.5 34.133,-39.57 57.512,-50.58 23.382,-11.01 50.394,-14.71 75.585,-8.94 0.739,0.18 1.508,0.37 2.051,0.9 0.688,0.66 0.844,1.69 0.961,2.64 2.778,22.16 1.836,46.38 -9.144,66.36 -3.43,6.24 -7.914,11.72 -13.153,16.36"
         style="fill:#172642;fill-opacity:1;fill-rule:nonzero;stroke:none"
         id="path28" /><path
         d="m 625.078,1466.86 c 2.852,7.81 8.438,15.01 15.973,18.28 0.937,0.41 1.902,0.75 2.898,1.03 21.207,5.94 32.512,-20.72 36.973,-36.28 6.398,-22.3 6.535,-45.87 6.555,-68.88 0.027,-30.09 0.05,-60.18 0.078,-90.27 0.008,-7.72 0.078,-15.73 3.347,-22.72 2.965,-6.32 8.254,-11.18 13.051,-16.25 29.735,-31.36 43.242,-74.27 64.184,-112.08 6.238,-11.26 13.539,-22.51 24.426,-29.39 8.335,-5.26 18.234,-7.61 26.656,-12.74 12.351,-7.54 20.504,-19.57 17.125,-34.48 -2.403,-10.62 -15.953,-23.72 -24.465,-10.65 -1.879,2.89 -3.07,6.2 -5.063,9.01 -6.789,9.57 -19.711,10.61 -28.828,16.98 -9.336,6.52 -16.468,15.67 -23.011,24.87 -3.141,4.41 -6.164,8.9 -9.286,13.33 -29.367,41.66 -69.855,75.76 -91.98,121.68 -17.094,35.48 -21.934,75.43 -26.074,114.6 -3.032,28.68 -5.821,57.44 -5.977,86.28 -0.051,9.35 0.215,18.9 3.418,27.68"
         style="fill:#e56e98;fill-opacity:1;fill-rule:nonzero;stroke:none"
         id="path30" /><path
         d="m 765.609,1284.78 c 0.196,3.24 -1.23,6.98 -2.683,10.06 -26.164,55.28 -32.481,118.53 -55.813,175.16 -2.441,5.92 -6.847,12.82 -12.98,11.72 -8.371,-1.49 -14.059,-13.46 -18.07,-19.98 -5.926,-9.65 -11.372,-19.6 -16.485,-29.73 -10.262,-20.33 -19.164,-41.34 -28.051,-62.34 -6.668,-15.75 -13.339,-31.5 -19.75,-47.37 -2.914,-7.2 -5.797,-14.52 -7.007,-22.23 -0.29,-1.83 -0.461,-3.8 0.289,-5.48 0.601,-1.36 1.734,-2.38 2.886,-3.28 7.274,-5.69 16.356,-8.21 25.262,-10.23 40.617,-9.2 82.906,-10.39 123.941,-3.48 2.356,0.4 4.856,0.9 6.551,2.63 1.246,1.26 1.805,2.84 1.91,4.55"
         style="fill:#56aab3;fill-opacity:1;fill-rule:nonzero;stroke:none"
         id="path32" /><path
         d="m 471.41,1477.75 c -1.722,8.13 -6.242,16.04 -13.242,20.34 -0.867,0.54 -1.777,1.01 -2.723,1.43 -20.168,8.86 -35.101,-15.95 -41.711,-30.72 -9.464,-21.18 -12.914,-44.49 -16.171,-67.28 -4.25,-29.79 -8.508,-59.57 -12.762,-89.36 -1.094,-7.64 -2.285,-15.56 -6.508,-22.02 -3.824,-5.85 -9.742,-9.91 -15.211,-14.26 -33.844,-26.87 -53.246,-67.45 -79.293,-101.94 -7.766,-10.28 -16.57,-20.39 -28.32,-25.66 -8.992,-4.05 -19.121,-4.98 -28.18,-8.88 -13.289,-5.72 -23.051,-16.49 -21.805,-31.72 0.887,-10.86 12.465,-25.73 22.723,-13.99 2.27,2.6 3.91,5.7 6.281,8.21 8.067,8.53 21.004,7.73 30.934,12.76 10.152,5.14 18.504,13.2 26.277,21.39 3.727,3.92 7.356,7.94 11.059,11.88 34.937,37.12 79.816,65.2 108.176,107.55 21.914,32.72 32.32,71.61 41.921,109.8 7.04,27.97 13.84,56.05 18.047,84.58 1.364,9.25 2.45,18.75 0.508,27.89"
         style="fill:#e56e98;fill-opacity:1;fill-rule:nonzero;stroke:none"
         id="path34" /><path
         d="m 478.051,1357.18 c -0.422,2.26 -0.711,3.84 -0.824,4.43 -5.407,29.41 -7.418,59.73 -13.836,88.79 -3.797,17.17 -6.946,37.13 -15.786,52.44 -6.453,11.18 -12.058,10.61 -21,1.26 -19.531,-20.43 -31.273,-46.59 -41.816,-72.43 -13.672,-33.54 -29.168,-66.79 -45.84,-98.93 -1.719,-3.31 69.121,-25.81 75.645,-27.21 25.367,-5.45 52.531,-8.01 78.32,-4.23 -3.906,-0.56 -12.16,41.55 -14.863,55.88"
         style="fill:#56aab3;fill-opacity:1;fill-rule:nonzero;stroke:none"
         id="path36" /><path
         d="m 685.805,316.371 c -8.172,81.461 -16.735,163 -28.676,243.949 -8.809,59.75 0.859,124.121 4.047,184.602 4.113,78.019 7.269,156.719 -3.254,234.398 -1.152,8.481 -2.684,16.899 -3.957,25.37 -10.828,61.15 -31.32,125.87 -56.77,182.52 -0.476,1.07 -1,2.18 -1.937,2.87 -0.906,0.67 -2.074,0.86 -3.188,1.03 -23.675,3.55 -47.961,2.76 -71.925,3.94 -7.457,0.36 -72.911,8.78 -74.692,5.33 -52.84,-102.47 -59.855,-221.771 -62.324,-337.021 -2.098,-98.211 -1.024,-196.461 1.789,-294.64 2.777,-97.047 0.902,-195.758 21.855,-291.117 0.231,-1.043 0.497,-1.782 0.743,-2.711 h 91.589 c -0.707,125.769 -3.39,252.738 -0.511,379.281 2.226,97.816 0.894,194.058 17.613,290.859 -3.836,-22.191 5.055,-53.34 7.117,-75.91 2.535,-27.609 5.02,-55.223 7.512,-82.84 4.984,-55.23 9.992,-110.453 15.473,-165.64 6.293,-63.379 13.73,-126.672 21.605,-189.879 4.016,-32.192 8.141,-64.352 12.285,-96.524 3.274,-25.379 3.34,-54.398 11.442,-78.789 8.066,-0.379 101.269,-9.238 99.351,8.981 -1.73,17.308 -3.449,34.609 -5.187,51.941"
         style="fill:#f8a018;fill-opacity:1;fill-rule:nonzero;stroke:none"
         id="path38" /><path
         d="m 691.531,1475.3 c 0.739,1.24 1.496,2.48 2.262,3.7 0.316,0.51 2.035,2.39 2.004,2.93 -0.051,0.78 -1.758,1.79 -2.328,2.18 -1.707,1.18 -3.68,1.91 -5.403,3.05 -9.035,6 -17.3,13.09 -26.66,18.59 -9.543,5.61 -19.652,10.25 -28.773,16.56 -2.766,1.91 -5.235,4.56 -8.457,5.71 -3.395,1.21 -7.418,-0.05 -10.883,-0.46 -28.188,-3.36 -58.738,-3.52 -85.82,5.92 -2.672,0.93 -5.129,2.35 -7.688,3.53 -2.285,1.06 -5.586,2.51 -8.07,2.85 -2.621,0.35 -4.512,-1.68 -6.711,-2.74 -2.902,-1.4 -5.883,-2.65 -8.887,-3.82 -6.015,-2.35 -12.152,-4.37 -18.195,-6.64 -13.051,-4.89 -25.828,-11 -39.074,-15.24 1.218,-9.19 1.367,-18.72 1.898,-28.27 4.199,-75.11 20.942,-155.2 -3.105,-228.67 -2.836,-8.67 -5.477,-17.41 -7.969,-26.18 -1.192,-4.2 -2.348,-8.42 -3.473,-12.64 -0.73,-2.72 -4.418,-10.86 -3.445,-13.42 1.734,-4.56 16.816,-8.33 21.25,-9.95 7.168,-2.6 14.453,-4.84 21.695,-7.21 23.676,-7.74 47.059,-9.67 71.899,-10.4 16.019,-0.48 32.05,-1.34 48.082,-0.73 8.035,0.3 16.074,0.95 24.015,2.24 3.746,0.61 8.059,1.01 11.61,2.38 5.394,2.09 3.32,3.83 2.265,8.78 -1.074,5.03 -1.379,10.29 -1.773,15.4 -0.68,8.74 -0.695,17.52 -1.383,26.24 -2.324,29.52 1.313,57.74 7.164,86.76 0.723,3.57 1.453,7.14 2.188,10.7 3.07,14.94 7.152,29.36 13.164,43.44 8.402,19.69 17.136,39.24 26.203,58.63 3.715,7.96 7.39,16.25 11.16,24.3 1.367,2.91 2.695,6.03 4.121,9.12 2.113,4.59 4.531,9.03 7.117,13.36"
         style="fill:#63b4be;fill-opacity:1;fill-rule:nonzero;stroke:none"
         id="path40" /><path
         d="m 627.871,1535.76 c -3.191,5.03 -5.973,10.32 -8.336,15.78 -1.539,3.56 -1.894,7.54 -3.652,11.02 -1.973,3.91 -4.637,4.48 -8.664,3.78 -7.856,-1.38 -15.617,-2.32 -23.598,-2.35 -8.562,-0.02 -17.144,0.39 -25.691,0.99 -5.45,0.4 -10.918,0.71 -16.309,1.66 -3.441,0.62 -10.836,4.45 -13.941,1.91 -2.563,-2.09 -4.735,-6.16 -6.844,-8.76 -5.207,-6.43 -10.406,-12.86 -15.609,-19.28 -3.704,-4.57 10.304,-12.46 13.136,-13.87 10.157,-5.07 22.125,-6.46 33.278,-7.98 12.289,-1.67 24.73,-2.75 37.136,-2.02 13.016,0.77 25.953,4.13 38.036,8.97 4.949,1.97 3.339,6.55 1.058,10.15"
         style="fill:#84d6d6;fill-opacity:1;fill-rule:nonzero;stroke:none"
         id="path42" /><path
         d="m 1600.92,230.91 c -5.9,0.84 -11.38,1.262 -16.14,1.281 -33.71,0.129 -67.51,-12.293 -100.54,-5.589 -33.57,6.82 -68.36,10.367 -102.47,5.707 -25.11,-3.43 -66.57,-11.547 -76.57,-39.11 -16.96,-14.918 -13.41,-46.019 4.78,-58.648 8.4,-5.832 18.57,-8.551 27.53,-13.492 11.45,-6.278 22.96,-12.469 34.68,-18.239 26.63,-13.1091 55.86,-26.5505 85.93,-27.8512 31.42,-1.3672 64.15,6.5117 93.8,16.1796 31.13,10.1526 61.52,25.3126 91.68,37.5116 15.48,6.262 30.42,13.442 36.39,30.488 15.17,43.411 -40.62,66.34 -79.07,71.762"
         style="fill:#efefed;fill-opacity:1;fill-rule:nonzero;stroke:none"
         id="path44" /><path
         d="m 1494.48,720.328 c 0.33,-11.719 1.32,-23.328 1.97,-34.93 2.19,-42.929 1.98,-85.847 2.19,-128.769 0.22,-48.289 0.88,-96.457 5.92,-144.539 3.61,-34.809 9.52,-69.418 11.93,-104.352 0.99,-13.136 1.42,-26.386 1.97,-39.629 0.44,-9.64 1.1,-19.281 1.97,-28.8 -0.1,-0.11 -0.1,-0.11 0,-0.227 1.54,-15.98 4.06,-31.75 8.76,-47.082 3.94,-13.031 9.75,-42.602 24.75,-46.102 10.95,-2.507 24.31,1.532 34.71,4.93 3.72,1.203 7.67,2.852 9.97,6.133 3.39,4.711 2.62,11.277 1.2,16.98 -3.83,16.309 -10.18,31.86 -16.09,47.52 -1.76,4.93 -3.51,9.848 -5.15,14.777 -1.1,3.391 -2.08,6.684 -2.96,10.071 -9.85,36.8 -7.67,75.66 -5.8,113.769 0,13.902 1.42,28.043 1.97,42.051 2.41,58.25 3.94,116.609 4.38,175.09 0.44,50.25 2.63,100.41 1.64,150.66 0.11,-4.707 -58.36,-1.641 -63.84,-0.867 -10.4,1.308 -19.92,7.226 -19.49,-6.684"
         style="fill:#ed9bbc;fill-opacity:1;fill-rule:nonzero;stroke:none"
         id="path46" /><path
         d="m 1372.72,156.961 c 2.41,-3.281 6.24,-4.93 10.08,-6.133 10.29,-3.398 23.65,-7.437 34.7,-4.93 15.01,3.5 20.81,33.071 24.75,46.102 4.27,14.121 6.79,28.691 8.33,43.469 2.52,23.883 2.62,48.293 4.26,72.269 2.42,34.934 8.33,69.543 12.05,104.352 5.04,48.082 5.69,96.25 5.81,144.539 0.21,42.922 0,85.84 2.29,128.769 0.55,11.602 1.65,23.211 1.97,34.93 0.33,13.91 -9.08,7.992 -19.6,6.684 -5.36,-0.774 -63.83,-3.84 -63.72,0.867 -0.99,-50.25 1.2,-100.41 1.53,-150.66 0.55,-58.481 1.97,-116.84 4.38,-175.09 0.65,-14.008 1.97,-28.149 1.97,-42.051 1.86,-38.109 4.16,-76.969 -5.69,-113.769 -3.84,-14.231 -9.31,-27.809 -14.46,-41.5 -3.72,-10.18 -7.33,-20.368 -9.85,-30.868 -1.32,-5.703 -2.19,-12.269 1.2,-16.98"
         style="fill:#ed9bbc;fill-opacity:1;fill-rule:nonzero;stroke:none"
         id="path48" /><path
         d="m 1442.65,1491.94 c -3.71,7.24 -10.01,13.54 -17.71,15.79 -0.97,0.28 -1.94,0.5 -2.94,0.65 -21.3,3.18 -29.02,-24.06 -31.46,-39.68 -3.49,-22.41 -0.76,-45.29 2.02,-67.61 3.63,-29.2 7.26,-58.38 10.9,-87.57 0.93,-7.5 1.83,-15.27 -0.49,-22.45 -2.11,-6.5 -6.65,-11.85 -10.68,-17.34 -25.03,-34.05 -32.92,-77.3 -48.63,-116.53 -4.69,-11.68 -10.4,-23.48 -20.13,-31.47 -7.45,-6.12 -16.76,-9.6 -24.3,-15.6 -11.08,-8.81 -17.52,-21.47 -12.43,-35.52 3.62,-10.02 18.36,-21.08 25.03,-7.37 1.47,3.03 2.22,6.39 3.81,9.36 5.42,10.11 17.83,12.68 25.9,19.97 8.27,7.46 14.08,17.21 19.3,26.92 2.51,4.66 4.9,9.39 7.39,14.06 23.42,43.98 58.55,81.98 74.43,129.21 12.27,36.49 12.1,75.84 11.36,114.33 -0.54,28.19 -1.33,56.43 -4.69,84.42 -1.09,9.08 -2.5,18.31 -6.68,26.43"
         style="fill:#e56e98;fill-opacity:1;fill-rule:nonzero;stroke:none"
         id="path50" /><path
         d="m 1342.69,1210.06 c 1.99,13.78 2.1,27.83 5.18,41.42 3.85,16.97 12.26,32.29 18.79,48.29 6.49,15.92 9.1,32.09 8.19,49.3 -1.5,28.33 -4.75,57.46 -0.97,85.77 3.23,24.3 7.96,48.74 19.74,70.46 6.03,11.12 11.17,13.09 20.13,4.2 21.42,-21.24 32.03,-50.61 39.45,-79.21 7.61,-29.28 16.28,-60.67 13.41,-91.15 -3.12,-33.21 -5.93,-66.88 -16.76,-98.66 -10.48,-30.79 -27.67,-59.16 -46.88,-85.24 -8.81,-11.97 -18.16,-23.54 -27.8,-34.85 -6.41,-7.52 -22.05,2.84 -28.98,6.05 -7.56,3.5 -16.74,6.4 -22.71,12.5 -3.92,4.01 -2.53,5.04 -0.15,9.88 2.31,4.7 4.45,9.48 6.41,14.32 5.55,13.76 9.66,28.09 12.26,42.69 0.26,1.4 0.48,2.82 0.69,4.23"
         style="fill:#f04043;fill-opacity:1;fill-rule:nonzero;stroke:none"
         id="path52" /><path
         d="m 1348.38,881.539 c 0.26,11.723 0.57,23.441 0.98,35.152 3.37,98.179 13.17,198.719 56.2,287.019 1.33,2.74 2.88,5.65 5.63,6.94 2.09,0.98 4.51,0.84 6.81,0.68 42.74,-2.95 85.48,-5.9 128.22,-8.85 3.54,-0.25 7.34,-0.59 10.04,-2.89 2.07,-1.75 3.15,-4.38 4.16,-6.89 0,-6.54 6.81,-16.98 9.28,-23.13 3.07,-7.64 5.78,-15.31 8.59,-23.01 5.87,-16.13 11.94,-32.07 16.83,-48.56 9.72,-32.79 16.53,-66.41 21.06,-100.289 9.18,-68.582 9.16,-138.063 5.47,-207.039 -1.07,-20.024 -2.47,-40.024 -4.06,-60.012 -0.26,-3.219 -0.6,-6.672 -2.63,-9.191 -1.66,-2.071 -4.21,-3.188 -6.66,-4.207 -79.99,-33.133 -173.53,-31.981 -252.68,3.109 -2.27,1.02 -4.63,2.129 -6.12,4.117 -1.89,2.543 -1.98,5.961 -1.99,9.121 -0.1,49.313 -0.2,98.641 0.87,147.93"
         style="fill:#1c1d1a;fill-opacity:1;fill-rule:nonzero;stroke:none"
         id="path54" /><path
         d="m 1387.96,1564.85 c 0.44,1.53 1.04,3.03 1.82,4.49 4.54,8.48 13.79,13.07 21.46,18.87 16.06,12.16 26.04,30.79 32.46,49.89 6.41,19.09 9.74,39.07 15.4,58.4 5.52,18.88 13.43,37.39 26.1,52.44 12.68,15.04 30.57,26.36 50.15,28.16 15.37,1.42 30.86,-3.06 44.4,-10.46 41.85,-22.88 63.98,-71.33 70.14,-118.63 1.36,-10.38 2.23,-21.31 7.18,-30.72 8.62,-16.41 28.97,-17.27 43.87,-24.67 21.89,-10.86 20.75,-36.92 11.79,-56.32 -19.14,-41.44 -68.52,-61.46 -110.62,-69.84 -47.05,-9.35 -97.07,-4.04 -140.87,15.66 -1.32,0.59 -2.63,1.2 -3.94,1.81 -22.82,10.81 -44.2,25.68 -59.3,45.93 -7.5,10.06 -13.4,23.38 -10.04,34.99"
         style="fill:#101a2c;fill-opacity:1;fill-rule:nonzero;stroke:none"
         id="path56" /><path
         d="m 1584.95,1471.52 c 2.78,7.63 8.24,14.67 15.61,17.87 0.91,0.4 1.86,0.73 2.83,1 20.74,5.81 31.79,-20.25 36.15,-35.46 6.25,-21.8 6.38,-44.84 6.4,-67.34 0.03,-29.41 0.06,-58.83 0.08,-88.24 0.01,-7.55 0.07,-15.38 3.27,-22.22 2.9,-6.18 8.07,-10.92 12.77,-15.88 29.06,-30.66 42.27,-72.6 62.73,-109.57 6.1,-11.01 13.24,-22 23.88,-28.73 8.15,-5.15 17.83,-7.44 26.06,-12.46 12.08,-7.36 20.05,-19.12 16.74,-33.7 -2.35,-10.38 -15.6,-23.18 -23.91,-10.41 -1.84,2.82 -3,6.06 -4.95,8.81 -6.64,9.36 -19.27,10.36 -28.19,16.59 -9.12,6.38 -16.09,15.33 -22.49,24.31 -3.07,4.32 -6.03,8.71 -9.07,13.03 -28.71,40.73 -68.29,74.07 -89.93,118.96 -16.7,34.69 -21.44,73.74 -25.48,112.03 -2.97,28.04 -5.7,56.16 -5.85,84.35 -0.05,9.14 0.21,18.47 3.35,27.06"
         style="fill:#e56e98;fill-opacity:1;fill-rule:nonzero;stroke:none"
         id="path58" /><path
         d="m 1583.61,1354.03 c 3.68,12.75 8.26,25.15 12.9,36.85 7.73,19.47 16.8,38.42 27.11,56.67 5.63,9.95 15.94,36.2 28.83,38.5 5.99,1.07 10.3,-5.67 12.69,-11.47 26.62,-64.62 -4.84,-134.09 25.62,-197.49 6.74,-14.05 13.88,-27.8 18.69,-42.68 7.49,-23.2 11.69,-46.52 24.56,-67.65 6.4,-10.5 16.94,-18.1 5.61,-28.95 -9.8,-9.39 -19.61,-18.78 -29.41,-28.18 -4.36,-4.18 -9.4,-7.78 -14.29,-2.39 -27.98,30.85 -55.53,63.15 -77.82,98.44 -12.76,19.14 -27.93,39.32 -36.04,61.03 -10.47,28 -6.75,58.53 1.55,87.32"
         style="fill:#f04043;fill-opacity:1;fill-rule:nonzero;stroke:none"
         id="path60" /><path
         d="m 1575.61,1542.29 c -13,27.31 -1.56,56.95 5.46,84.59 -0.85,0.01 -1.61,0.03 -2.09,0.09 l -56.64,6.87 c -1.21,0.15 -12.06,2.55 -12.81,1.56 -4.21,-5.61 -3.98,-13.1 -4.75,-20.77 -1.22,-12.18 -1.67,-24.09 -4.48,-35.13 -2.87,-11.27 -10.23,-20.07 -17.62,-28.7 -8.41,-9.82 -16.74,-19.31 -25.86,-28.5 -7.49,-22.85 10.24,-56.37 22.47,-74.18 14.36,-20.9 37.75,-33.76 62.82,-33.07 27.91,0.77 48.01,18.83 59.39,44.92 4.69,10.76 8.03,22.12 10.46,33.65 1.07,5.09 2.62,10.19 3.5,15.34 -16.73,6.46 -31.91,16.63 -39.85,33.33"
         style="fill:#e56e98;fill-opacity:1;fill-rule:nonzero;stroke:none"
         id="path62" /><path
         d="m 1475.63,1726.13 c 4.06,9.77 10.66,19.63 17.54,27.64 13.84,16.12 35.99,20.63 56.11,15.39 19.58,-5.1 36.8,-18.55 47.67,-35.47 5.25,-8.18 8.11,-18.08 9.55,-27.63 0.51,-3.41 0.88,-7.11 0.91,-10.67 0.02,-3.01 -1.28,-7.59 0.06,-10.41 -0.17,0.35 4.43,1.76 4.87,1.84 1.94,0.35 3.88,0.23 5.74,-0.39 3.39,-1.12 5.82,-3.77 7.21,-7.01 2.06,-4.79 2.83,-10.94 1.95,-16.06 -2.14,-12.34 -10.11,-23.88 -19.81,-31.58 -5.69,-4.51 -12.16,-7.99 -18.96,-10.51 -0.12,-0.16 -0.22,-0.35 -0.35,-0.52 -10.29,-13.93 -25.06,-24.12 -40.89,-30.8 -12.31,-5.2 -30.87,-12.24 -44.01,-6.6 -11.02,4.73 -17.36,19.69 -22.39,29.84 -5.8,11.73 -10.19,24.17 -12.73,37.02 -5.06,25.48 -2.44,51.93 7.53,75.92"
         style="fill:#f086a5;fill-opacity:1;fill-rule:nonzero;stroke:none"
         id="path64" /><path
         d="m 1649.91,1479.77 c 0.72,1.21 1.46,2.42 2.21,3.62 0.31,0.5 1.99,2.33 1.96,2.86 -0.05,0.76 -1.73,1.75 -2.28,2.13 -1.67,1.16 -3.6,1.87 -5.28,2.99 -8.83,5.86 -16.91,12.79 -26.07,18.17 -9.32,5.48 -19.21,10.02 -28.13,16.19 -5.44,3.77 -7.35,7.33 -13.39,2.98 -19.91,-14.35 -38.96,-31.16 -57.06,-47.72 -2.26,-2.07 -4.72,-4.28 -7.76,-4.65 -2.45,-0.31 -17.12,25.99 -19.29,29.28 -6.2,9.42 -12.93,18.65 -18.36,28.54 -0.81,1.48 -2.34,6.69 -3.64,7.47 -2.09,1.25 -2.99,-0.33 -5.26,-1.42 -2.84,-1.38 -5.75,-2.6 -8.68,-3.74 -5.89,-2.3 -11.89,-4.28 -17.8,-6.49 -12.75,-4.78 -25.25,-10.76 -38.19,-14.91 1.19,-8.97 1.33,-18.29 1.86,-27.62 4.1,-73.43 20.46,-151.72 -3.04,-223.55 -2.77,-8.47 -5.36,-17.01 -7.79,-25.6 -1.17,-4.1 -2.29,-8.22 -3.4,-12.35 -0.71,-2.66 -4.31,-10.62 -3.37,-13.12 1.7,-4.45 16.44,-8.15 20.78,-9.72 7,-2.55 14.13,-4.74 21.21,-7.06 23.15,-7.56 46,-9.45 70.28,-10.17 15.67,-0.46 31.34,-1.3 47.01,-0.71 7.86,0.29 15.71,0.93 23.48,2.19 3.66,0.59 7.87,1 11.34,2.34 5.28,2.03 3.25,3.74 2.22,8.57 -1.05,4.91 -1.35,10.07 -1.74,15.06 -0.66,8.54 -0.67,17.12 -1.34,25.65 -2.27,28.85 1.27,56.45 7,84.81 0.7,3.49 1.42,6.98 2.14,10.47 4.82,23.47 13.77,44.79 23.44,66.6 6.07,13.67 12.23,27.29 18.48,40.88 3.13,6.8 6.27,13.58 9.45,20.35 2.43,5.18 4.89,13.56 9.01,17.68"
         style="fill:#f25453;fill-opacity:1;fill-rule:nonzero;stroke:none"
         id="path66" /><path
         d="m 1458.62,1702.05 c 0.75,41.72 34.74,75.31 76.63,75.31 41.89,0 75.87,-33.59 76.62,-75.31 h -153.25"
         style="fill:#1a3253;fill-opacity:1;fill-rule:nonzero;stroke:none"
         id="path68" /><path
         d="m 1520.43,239.082 c 1.54,-15.98 4.06,-31.75 8.76,-47.082 3.94,-13.031 9.75,-42.602 24.75,-46.102 10.95,-2.507 24.31,1.532 34.71,4.93 3.72,1.203 7.67,2.852 9.97,6.133 3.39,4.711 2.62,11.277 1.2,16.98 -3.83,16.309 -10.18,31.86 -16.09,47.52 0.87,-5.91 1.42,-11.941 0.43,-17.961 -1.31,-8.32 -5.8,-16.539 -13.47,-20.148 -8.76,-3.942 -19.48,-0.883 -26.72,5.367 -7.22,6.351 -11.6,15.222 -15.1,24.203 -3.4,8.539 -6.25,17.289 -8.44,26.16"
         style="fill:#172642;fill-opacity:1;fill-rule:nonzero;stroke:none"
         id="path70" /><path
         d="m 1372.72,156.961 c 2.41,-3.281 6.24,-4.93 10.08,-6.133 10.29,-3.398 23.65,-7.437 34.7,-4.93 15.01,3.5 20.81,33.071 24.75,46.102 4.27,14.121 6.79,28.691 8.33,43.469 -2.42,-9.52 -4.06,-19.27 -7.89,-28.36 -4.93,-12.039 -15.66,-24.41 -29.67,-24.847 -10.08,-0.223 -19.71,4.808 -26.06,12.699 -2.41,2.949 -4.27,6.348 -5.59,9.848 -3.72,-10.18 -7.33,-20.368 -9.85,-30.868 -1.32,-5.703 -2.19,-12.269 1.2,-16.98"
         style="fill:#172642;fill-opacity:1;fill-rule:nonzero;stroke:none"
         id="path72" /><path
         d="m 2696.44,207.199 c -27.01,19.41 -81.21,22.903 -112.63,27.571 -40.65,6.031 -81.69,8.992 -122.78,8.449 -102.07,-1.34 -196.45,-23.719 -298.85,-4.719 -10.2,1.879 -18.57,-1.66 -24.31,-7.621 -2.08,-0.848 -4.15,-1.758 -6.17,-2.988 -43.45,-26.403 -14.32,-78.161 18.77,-96.442 67.7,-37.3982 165.23,-58.5193 241.61,-49.5974 48.04,5.5976 94.41,19.0974 142.71,24.0784 40.82,4.211 82.42,5.558 122.39,15.742 39.16,9.957 88.29,50.277 39.26,85.527"
         style="fill:#efefed;fill-opacity:1;fill-rule:nonzero;stroke:none"
         id="path74" /><path
         d="m 2248.69,1172.15 c 5.33,-8.47 10.74,-16.83 16.18,-25.03 3.55,-5.34 20.36,-23.06 19.76,-29.03 0.24,2.34 0.52,4.67 0.57,7.07 0.63,30.97 -8.74,61.36 -10.71,91.95 -1.79,27.66 -3.78,56.07 -14.05,82.12 -9.08,23.05 -27.24,38.76 -22.11,65.54 4.77,24.94 18.9,46.41 27.91,69.84 12.35,32.13 23.88,69.82 16.84,104.38 -4.82,23.68 -27.11,38.42 -47.69,19.89 -24.77,-22.3 -31.8,-59.05 -38.28,-90.2 -7.64,-36.72 -18.87,-74.38 -20.23,-112.57 -1.4,-39.04 12.24,-76.74 29.89,-110.96 12.65,-24.54 26.97,-49.22 41.92,-73"
         style="fill:#e56e98;fill-opacity:1;fill-rule:nonzero;stroke:none"
         id="path76" /><path
         d="m 2295.12,201.422 c -25.59,-21.832 -53.53,-41 -83.1,-57.211 -1.53,-0.813 -7.75,0.199 -9.59,0.199 -4.79,0.211 -9.58,0.719 -14.37,1.539 -11.63,2.031 -1.02,11.922 3.26,16.922 5.6,6.52 11.72,12.438 17.13,19.059 1.22,1.441 2.34,2.961 3.46,4.5 6.43,8.558 11.53,17.941 15.71,27.832 10.91,26.207 15.39,55.16 17.33,83.308 0.41,7.539 -1.42,14.27 7.34,16.719 3.16,0.82 38.95,2.141 38.95,2.551 0.31,-3.27 0.51,-6.531 0.82,-9.789 -0.2,-0.61 -0.41,-1.231 -0.41,-1.84 -0.31,-14.891 -1.02,-29.77 -0.1,-44.563 0.41,-7.027 1.22,-14.066 2.75,-20.886 0.31,-1.442 0.61,-2.762 1.12,-4.192 1.64,-5.609 4.08,-11.32 4.69,-16.82 0.72,-6.629 0.92,-12.238 -4.99,-17.328"
         style="fill:#ed9bbc;fill-opacity:1;fill-rule:nonzero;stroke:none"
         id="path78" /><path
         d="m 2602.84,163.531 c -4.59,-1.242 -9.38,-2.25 -14.07,-2.871 -1.84,-0.199 -7.95,-1.832 -9.59,-1.121 -30.99,13.262 -60.56,29.68 -88.19,48.949 -6.43,4.481 -6.63,10.192 -6.63,16.821 0,5.91 2.24,12.132 3.36,18.25 0.2,1.019 0.41,2.14 0.51,3.171 0.72,6.918 0.92,14.059 0.61,21.102 -0.4,14.789 -2.55,29.566 -4.38,44.246 -0.1,0.711 -0.3,1.332 -0.61,1.844 v 9.789 c 0,-0.313 35.79,1.84 38.95,1.219 8.97,-1.532 7.75,-8.469 8.97,-15.91 4.59,-27.829 11.83,-56.282 25.19,-81.27 6.01,-11 13.25,-21.398 22.22,-30.281 0.41,-0.399 0.82,-0.809 1.23,-1.219 5.71,-5.609 11.83,-10.609 17.64,-16.109 4.69,-4.582 16.21,-13.461 4.79,-16.61"
         style="fill:#ed9bbc;fill-opacity:1;fill-rule:nonzero;stroke:none"
         id="path80" /><path
         d="m 2531.49,769.699 c -0.74,75.879 -1.49,151.75 -2.23,227.621 -0.37,37.95 -0.74,75.88 -1.11,113.82 -0.16,16.57 4.11,44.64 -2,63.79 h -129.18 -8.23 -129.17 c -6.11,-19.15 -1.84,-47.22 -2,-63.79 -0.36,-37.94 -0.74,-75.87 -1.12,-113.82 -0.73,-75.871 -1.47,-151.742 -2.22,-227.621 -1.69,-172.32 -3.52,-344.89 -18.13,-516.41 h 66.71 c 12.53,106.672 26.4,213.152 41.54,319.391 15.6,109.539 38.99,220.531 48.51,331.781 9.52,-111.25 32.91,-222.242 48.51,-331.781 15.14,-106.239 29.01,-212.719 41.54,-319.391 h 66.7 c -14.6,171.52 -16.44,344.09 -18.12,516.41"
         style="fill:#1c1d1a;fill-opacity:1;fill-rule:nonzero;stroke:none"
         id="path82" /><path
         d="m 2517.07,1859.2 c -2.33,5.98 -6.35,10.68 -12.29,11.93 -3.42,0.71 -6.94,-0.18 -10.28,-1.18 -6.62,-2 -13.11,-4.46 -19.4,-7.36 -5.47,-2.53 -10.86,-5.44 -15.23,-9.59 -1.07,-1.03 -2.07,-2.15 -2.97,-3.35 -18.9,22.46 -47.21,36.31 -78.46,35.22 -1.06,-0.03 -2.11,-0.07 -3.17,-0.21 l -2.4,-0.08 c -33.27,-3.09 -61.53,-22.83 -77.01,-50.78 -0.34,-1.26 -0.29,-2.61 -0.05,-3.85 0.45,-2.1 1.48,-3.99 2.79,-5.77 -9.01,-20.23 -12.39,-44.39 -12.12,-66.03 11.65,-44.42 52.02,-76.48 98.99,-74.85 10.57,0.38 20.7,2.46 30.19,5.97 39.23,14.36 66.63,53.4 65.06,98.27 -0.37,10.66 -2.38,20.86 -5.71,30.41 13.67,1.62 30.93,-2.73 40.17,10.4 4.85,6.91 5.82,20.72 1.89,30.85"
         style="fill:#1c1d1a;fill-opacity:1;fill-rule:nonzero;stroke:none"
         id="path84" /><path
         d="m 2435.86,1640.39 c -18.44,26.37 -11.65,59.47 -9.16,89.71 -0.89,-0.14 -1.69,-0.25 -2.2,-0.28 l -60.63,-2.75 c -1.3,-0.06 -13.1,0.56 -13.72,-0.62 -3.43,-6.63 -1.87,-14.44 -1.33,-22.63 0.87,-13 2.49,-25.57 1.48,-37.64 -1.02,-12.33 -7.19,-22.85 -13.43,-33.22 -6.31,-10.48 -12.5,-24.38 -21.32,-32.96 -7.9,-7.68 -19.13,-12.69 -29.54,-15.9 -3.09,-0.95 -6.46,-1.9 -8.37,-4.51 -4.35,-5.93 0.06,-15.47 1.2,-21.76 2.86,-15.81 5.22,-33.93 17.77,-45.27 9.9,-8.94 23.78,-12.4 36.43,-15.5 22.09,-5.42 45.39,-5.17 67.65,-0.95 19.78,3.75 46.07,9.67 58.95,26.37 8.43,10.92 14.5,22.58 17.87,36.11 3.03,12.12 4.54,24.63 5.05,37.14 0.23,5.54 0.96,11.15 0.98,16.71 -18.69,3.83 -36.4,11.83 -47.68,27.95"
         style="fill:#e56e98;fill-opacity:1;fill-rule:nonzero;stroke:none"
         id="path86" /><path
         d="m 2454.5,1734.2 c -5,-11.34 -13.92,-20.31 -24.47,-26.64 -4.33,-2.65 -9.78,-3.61 -11.53,-8.58 -1.22,-3.5 -1.79,-6.69 -2.84,-9.71 -0.86,-3.02 -2.2,-5.75 -4.89,-8.54 -4.18,-4.28 -9.85,-7.18 -14.96,-9.66 -17.02,-8.39 -37.97,-17.3 -57.32,-16.82 -25.61,0.75 -35.04,22.73 -41.94,44.04 -4.32,13.6 -7.5,27.53 -9.06,41.81 -0.58,5.66 -0.98,11.8 -1.01,18.05 -0.27,21.64 3.11,45.8 12.12,66.03 9.01,20.22 23.54,36.6 45.64,42.95 29.33,8.53 63.68,-5.76 80.61,-30.47 6.19,-9.02 10.12,-19.65 12.22,-30.35 0.58,-2.97 3.19,-36.35 0.31,-36.45 0.29,-0.09 0.68,-0.07 0.96,-0.16 1.17,-0.15 2.33,-0.4 3.5,-0.84 14.79,-4.97 18.45,-21.48 12.66,-34.66"
         style="fill:#f086a5;fill-opacity:1;fill-rule:nonzero;stroke:none"
         id="path88" /><path
         d="m 2457.01,1816.62 c -0.6,5.94 -1.67,11.87 -3.31,17.58 -2.18,7.34 -5.41,14.35 -9.76,20.54 -7.79,10.98 -19.04,19.15 -31.52,24.01 -11.71,4.68 -24.47,6.36 -37.15,5.91 l -2.4,-0.08 c -16.41,-0.95 -32.8,-5.57 -46.63,-14.42 -9.88,-6.31 -18.43,-14.69 -24.63,-24.62 -2,-3.24 -4.93,-7.58 -5.75,-11.74 -0.34,-1.26 -0.29,-2.61 -0.05,-3.85 0.45,-2.1 1.48,-3.99 2.79,-5.77 2.23,-3 5.3,-5.49 7.87,-7.71 2.68,-2.22 5.45,-4.53 8.84,-5.18 4.75,-1.08 9.48,1.1 13.84,3.18 22.99,10.81 48.37,19.67 73.26,14.87 5.13,-0.98 10.19,-2.63 14.52,-5.55 4.24,-2.93 7.67,-7.43 8.62,-12.5 1.32,-7.55 -3.13,-15.31 -9.52,-19.57 -2.26,-1.52 -4.81,-2.76 -6.17,-5.02 -1.74,-2.75 -1.42,-6.11 -0.93,-9.27 1.14,-7.25 3.33,-13.97 5.67,-20.9 0.18,-0.53 0.37,-1.08 0.33,-1.65 -0.04,-0.59 -0.31,-1.15 -0.56,-1.69 -2.89,-6.19 -2.55,-13.27 -5.17,-19.55 -4.62,-11.06 -14.29,-19.87 -25.72,-23.45 -11.43,-3.58 -24.41,-1.84 -34.5,4.61 -2.54,1.64 -4.92,3.55 -7.63,4.91 -6.64,3.32 -13.76,2.63 -20.89,2.3 -5.01,-0.22 -10.61,0.18 -15.81,0.94 -4.57,0.68 -10.45,3.2 -15.01,2.12 -11.95,-2.82 -7.06,-26.48 -3.69,-33.94 3.49,-7.71 5.88,-15.88 9.48,-23.55 5.35,-11.36 15.67,-21.38 28.82,-20.19 18.69,1.7 37.12,5.48 54.8,11.86 11.42,4.13 23.5,8.76 30.73,18.52 6.68,9.03 7.99,20.86 8.37,32.09 0.32,9.44 2.04,18.7 3.02,28.07 2.29,21.71 22.16,31.7 31.56,49.5 4.6,8.91 5.19,19.32 4.28,29.19"
         style="fill:#1c1d1a;fill-opacity:1;fill-rule:nonzero;stroke:none"
         id="path90" /><path
         d="m 2548.37,246.738 c 2.51,0.09 5.17,0.172 7.36,-1.047 3.64,-2.019 4.2,-7.16 5.96,-10.652 2.46,-4.859 5.4,-9.461 8.61,-13.867 8.46,-11.594 19.01,-25.301 31.37,-32.902 4.68,-2.879 9.88,-4.911 14.33,-8.129 4.44,-3.243 8.22,-8.102 8.19,-13.602 -0.01,-1.68 -0.41,-3.418 -1.47,-4.719 -1.02,-1.25 -2.54,-1.98 -4.02,-2.64 -13.38,-6.008 -28.42,-10.129 -42.68,-6.692 -10.89,2.621 -21.28,8.953 -30.96,14.383 -16.21,9.117 -30.66,21.93 -47.54,29.688 -4.3,1.98 -8.89,3.582 -12.51,6.621 -6.4,5.379 -8.66,14.48 -7.81,22.8 0.64,6.27 2.67,15.622 6.5,20.801 3.42,4.629 13.3,1.297 19.05,0.86 15.17,-1.172 30.41,-1.461 45.62,-0.903"
         style="fill:#060707;fill-opacity:1;fill-rule:nonzero;stroke:none"
         id="path92" /><path
         d="m 2233.98,246.25 c -0.96,-0.449 -1.85,-1.039 -2.63,-1.828 -1.87,-1.863 -2.75,-4.461 -3.58,-6.961 -2.96,-8.922 -4.74,-17.191 -9.3,-25.609 -6.83,-12.633 -15.45,-27.633 -26.68,-36.813 -4.26,-3.48 -9.14,-6.18 -13.11,-9.98 -3.98,-3.789 -7.07,-9.118 -6.31,-14.559 0.23,-1.672 0.86,-3.34 2.09,-4.48 1.18,-1.122 2.78,-1.629 4.33,-2.079 14.08,-4.16 29.53,-6.23 43.2,-0.929 10.44,4.047 19.89,11.707 28.75,18.398 14.85,11.199 27.45,25.82 43.15,35.77 4,2.539 8.33,4.73 11.51,8.242 5.62,6.18 6.64,15.508 4.69,23.629 -1.47,6.129 -4.74,15.129 -9.22,19.75 -3.35,3.449 -9.56,1.008 -13.39,-0.09 -5.36,-1.539 -10.53,-1.59 -16.12,-1.84 -8.06,-0.34 -16.15,-0.691 -24.16,0.109 -4.42,0.442 -9.4,1.051 -13.22,-0.73"
         style="fill:#060707;fill-opacity:1;fill-rule:nonzero;stroke:none"
         id="path94" /><path
         d="m 2550.07,1585.22 c -15.9,7.92 -32.45,14.57 -48.87,21.31 -6.92,2.83 -13.87,5.62 -20.73,8.58 -2.04,0.89 -4.07,2.03 -6.16,2.78 -4.76,1.7 -4.78,0.18 -6.8,-4.48 -9.99,-23.04 -22.9,-51.14 -43.71,-66.36 -23.81,-17.41 -64.56,-25.45 -89.73,-5.65 -13.66,10.75 -18.57,28 -17.36,44.84 0.22,2.95 2.37,19.31 -2.97,19.37 -9.93,0.12 -19.61,-9.34 -27.81,-13.98 -10.02,-5.67 -20.47,-10.46 -31.27,-14.41 -6.72,-2.45 -20.32,-5.7 -23.45,-13.12 -0.85,-2.01 1.27,-6.72 1.69,-8.71 0.94,-4.37 1.85,-8.75 2.74,-13.12 20.58,-101.47 42.53,-199.26 25.83,-303.24 -2.45,-15.23 -6.88,-30.02 -10.53,-44.99 -2.83,-11.59 -3.53,-24.55 -7.81,-35.66 -1.05,-2.72 -2.15,-5.54 -1.85,-8.43 1.01,-9.55 32.26,-18.22 40.27,-21.47 16.69,-6.76 33.97,-12.38 51.88,-14.75 61.32,-8.12 119.12,14.42 171.65,44.63 7.63,4.39 16.95,7.13 25.26,4.22 4.22,-1.49 9.88,-5.89 13.49,-1.43 3.34,4.12 -1.33,15.05 -2.49,19.17 -4.39,15.64 -9.92,31.01 -12.54,47.1 -8.18,50.4 -12.91,102.86 -9.77,154.42 3.27,53.66 18.71,101.46 34.18,152.3 3.98,13.07 8.03,26.28 13.67,38.73 1.03,2.45 -6.07,7.01 -16.81,12.35"
         style="fill:#f8a018;fill-opacity:1;fill-rule:nonzero;stroke:none"
         id="path96" /><path
         d="m 2637.33,1418.52 c -5.47,22.27 -13.13,44.04 -18.17,66.51 -3.37,15.06 -6.16,30.16 -12.09,44.58 -8.99,21.81 -32.26,53.61 -59.92,45.45 -20.55,-6.06 -24.08,-38.18 -25.46,-55.82 -2.94,-37.65 11.37,-74.32 30.12,-106.25 10.35,-17.64 27.45,-38.6 27.36,-60.08 -0.05,-12.26 -10.7,-20.08 -16.12,-30.14 -19.96,-37.09 -30.9,-77.96 -40.17,-118.79 -3.26,-14.35 -6.55,-28.71 -10.69,-42.83 -3.7,-12.63 -11.89,-26.83 -9.26,-40.32 2.02,-10.37 6.6,-21.73 10.54,-31.51 3.96,-9.82 9.69,-2.42 14.07,3.1 14.23,17.95 22.04,39.54 32.57,59.62 23.48,44.75 58.01,84.35 72.86,133.33 13.15,43.32 15.18,89.13 4.36,133.15"
         style="fill:#e56e98;fill-opacity:1;fill-rule:nonzero;stroke:none"
         id="path98" /><path
         d="m 2470.26,1838.21 c 3.65,-7.62 7.23,-15.69 6.86,-24.13 -0.03,-0.69 -0.47,-1.63 -1.1,-1.34 -2.41,8.31 -5.77,16.4 -10.4,23.71 -1.71,2.7 -3.59,5.29 -5.47,7.87 -1.06,1.46 -5.25,5.54 -4.65,7.38 0.81,2.47 3.81,1.01 5.12,0.24 3.21,-1.88 9.64,-9.83 9.64,-13.73"
         style="fill:#f8a018;fill-opacity:1;fill-rule:nonzero;stroke:none"
         id="path100" /><path
         d="m 2491.92,1115.47 c 1.75,-8.34 5.24,-16.17 9.25,-23.58 3.7,-6.82 8.35,-13.78 15.36,-16.38 2.61,-0.96 5.91,-1.07 7.71,1.14 0.84,1.03 1.21,2.38 1.45,3.71 0.39,2.09 0.53,4.23 0.41,6.34 -0.04,0.78 -0.14,1.63 -0.68,2.17 -0.82,0.83 -2.14,0.48 -3.27,0.52 -2.22,0.08 -4.05,1.82 -5.46,3.64 -4.34,5.6 -6.57,12.67 -8.71,19.56 -1.05,3.34 -2.09,6.69 -3.13,10.03 -0.62,1.99 -1.24,4.02 -1.31,6.11 -0.1,2.79 0.78,5.55 0.57,8.32 -0.22,2.99 -2.2,7.08 -5.11,8.02 -3.11,1.01 -4.93,-2.12 -5.97,-4.76 -3.01,-7.69 -2.79,-16.86 -1.11,-24.84"
         style="fill:#313330;fill-opacity:1;fill-rule:nonzero;stroke:none"
         id="path102" /><path
         d="m 5511.08,215.922 c -28.94,-0.391 -57.89,-0.774 -86.83,-1.16 -65.69,4.066 -130.18,14.199 -196.53,17.828 -32.85,1.801 -105.74,-2.57 -122.2,-38.461 -9.88,-8.188 -16.96,-19.008 -18.87,-33.918 -1.1,-8.481 5.55,-17.481 12.37,-21.582 35.67,-21.399 91.18,-20.188 131.27,-20.828 55.75,-0.879 110.74,0.969 166.21,-6.153 75.63,-9.718 187.99,-30.8863 246.91,35.411 67.46,75.921 -103.21,69.25 -132.33,68.863"
         style="fill:#efefed;fill-opacity:1;fill-rule:nonzero;stroke:none"
         id="path104" /><path
         d="m 5296.52,1042.11 c -0.27,2.15 -0.81,4.3 -2.3,5.81 -1.66,1.69 -4.13,2.21 -6.46,2.65 -5.36,1.04 -10.72,2.07 -16.08,3.1 -1.7,0.32 -3.47,0.65 -5.13,0.18 -3.66,-1.04 -5.21,-5.28 -6.22,-8.95 -4.34,-15.81 -8.7,-31.62 -13.04,-47.431 -1.93,-7.02 -4.33,-13.938 -4.09,-21.321 0.25,-7.488 2.51,-14.808 5.48,-21.636 6.23,-14.332 15.63,-27.282 27.33,-37.653 1.04,-0.929 2.47,-1.91 3.74,-1.3 1.57,0.75 1.29,3.05 0.69,4.691 -3.11,8.559 -8.07,16.352 -11.19,24.898 -5.28,14.383 -5.12,30.102 -4.9,45.422 0.02,1.102 0.05,2.289 0.7,3.18 0.64,0.891 2.15,1.238 2.84,0.379 0.33,-0.418 0.39,-0.988 0.43,-1.52 1.07,-14.757 -1.39,-30.589 5.72,-43.558 0.94,-1.711 2.63,-3.563 4.48,-2.961 0.8,0.269 1.38,0.949 1.83,1.66 1.66,2.629 1.97,5.84 2.36,8.922 3.57,28.387 16.59,55.828 13.93,84.318 -0.03,0.37 -0.07,0.75 -0.12,1.12"
         style="fill:#e56e98;fill-opacity:1;fill-rule:nonzero;stroke:none"
         id="path106" /><path
         d="m 5626.01,1644.46 c -2.85,4.85 -10.57,7.15 -10.17,12.77 0.29,4.04 4.76,6.16 7.77,8.88 7.53,6.76 5.26,21.16 -3.99,25.27 -5.72,2.55 -13.63,2.08 -16.66,7.57 -3.76,6.81 4.31,14.85 3.03,22.52 -1.42,8.55 -13.3,11.89 -15.41,20.28 -1.3,5.14 1.53,10.34 2.21,15.59 1.41,10.73 -6.05,20.3 -12.19,29.21 -9.29,13.47 -16.29,28.3 -24.71,42.29 -13.77,22.86 -31.4,46.04 -57.26,55.55 -25.57,9.42 -53.46,4.07 -77.18,-8.01 -47.9,-24.4 -56.28,-85.15 -39.82,-132.43 -1.86,-4.49 -3.08,-9.09 -2.86,-13.97 0.37,-8.5 4.82,-18.07 -0.39,-24.78 -4.95,-6.37 -16.53,-6.48 -18.78,-14.22 -1.34,-4.62 1.65,-9.23 3.18,-13.79 2.14,-6.34 1.1,-13.47 -2.22,-19.21 -3.2,-5.54 -7.65,-8.13 -5.31,-14.63 5.47,-15.13 22.58,-23.68 35.74,-31.08 72.44,-40.71 158.52,-28.64 226.34,15.5 5.58,3.62 11.77,9.73 9.11,15.84 -0.12,0.28 -0.27,0.57 -0.43,0.85"
         style="fill:#1c1d1a;fill-opacity:1;fill-rule:nonzero;stroke:none"
         id="path108" /><path
         d="m 5336.48,1394.9 c -6,-26.6 -13.4,-51.9 -18.9,-77.6 -4.4,-21.1 -7.5,-42.4 -7.39,-65.1 0.09,-8.7 -1.21,-62.8 -1.91,-115 -0.3,-18.2 -0.5,-36.2 -0.59,-51.9 -0.11,-29.4 0.29,-50.9 1.79,-51 h -60.8 c -15.2,166.1 -26.9,335 12.9,496.6 2.7,11.1 5.8,22.4 12.5,31.6 2.1,2.8 4.4,5.4 6.9,7.7 0.9,0.9 1.8,1.7 2.8,2.4 0.1,0.1 0.2,0.1 0.3,0.2 5.2,2.8 10.3,5.6 15.4,8.4 3.3,1.8 6.7,3.6 10,5.5 -0.1,-5.6 -0.3,-10.5 1.9,-15.4 3.41,-7.3 8.81,-13.3 11.7,-21.1 0.9,-2.3 1.6,-4.6 2.3,-6.9 3.9,-13 5.8,-26.5 8.7,-39.7 7.9,-36.4 10.6,-72.1 2.4,-108.7"
         style="fill:#dc252d;fill-opacity:1;fill-rule:nonzero;stroke:none"
         id="path110" /><path
         d="m 5501.2,1651.08 c -15.87,24.46 -11.02,53.69 -7.27,81.42 h -90.33 c -3.12,-18.73 3.9,-37.67 3.52,-56.55 -0.42,-21.19 -7.94,-40.11 -25.74,-52.24 -7.76,-5.27 -15.51,-10.55 -23.27,-15.82 -0.52,-0.36 -1.07,-0.74 -1.37,-1.29 -0.88,-1.6 0.59,-3.42 1.9,-4.68 15.59,-15.14 16.33,-35.26 27.25,-53.01 6.8,-11.06 15.78,-21.02 27.1,-27.39 3.52,-1.98 7.24,-3.6 11.02,-5.04 15.54,-5.93 32.4,-8.92 48.9,-6.94 16.51,1.98 31.63,6 44.19,17.58 11.54,10.63 18.95,25.04 23.24,39.98 3.49,12.11 5.44,24.68 6.41,37.29 0.43,5.57 1.35,11.21 1.57,16.82 -18.72,4.52 -36.31,13.21 -47.12,29.87"
         style="fill:#e56e98;fill-opacity:1;fill-rule:nonzero;stroke:none"
         id="path112" /><path
         d="m 5523.31,1745.04 c -5.44,-11.25 -14.76,-19.99 -25.62,-26 -4.46,-2.52 -10,-3.3 -11.94,-8.25 -1.36,-3.49 -2.03,-6.69 -3.19,-9.7 -0.98,-3.01 -2.43,-5.72 -5.25,-8.45 -4.36,-4.16 -10.18,-6.88 -15.43,-9.21 -17.46,-7.86 -38.9,-16.11 -58.4,-14.94 -25.81,1.65 -34.55,24.15 -40.76,45.89 -3.87,13.88 -6.59,28.04 -7.66,42.5 -0.38,5.72 -0.58,11.93 -0.38,18.24 0.48,21.83 4.74,46.09 14.55,66.17 9.79,20.09 25.03,36.1 47.54,41.72 29.88,7.57 64.04,-8.05 80.24,-33.57 5.92,-9.31 9.51,-20.18 11.26,-31.05 0.48,-3 1.93,-36.77 -0.98,-36.77 0.3,-0.1 0.69,-0.1 0.98,-0.19 1.16,-0.2 2.33,-0.49 3.49,-0.97 14.74,-5.53 17.85,-22.32 11.55,-35.42"
         style="fill:#f086a5;fill-opacity:1;fill-rule:nonzero;stroke:none"
         id="path114" /><path
         d="m 5530.46,1791.23 c -2.55,-2.77 -5.37,-5.29 -8.41,-7.52 -10.2,-7.48 -22.44,-13.07 -29.28,-24.23 -0.64,-1.07 -1.34,-2.25 -2.53,-2.62 -4.75,-1.48 -10.88,29.27 -11.37,33.4 -0.39,3.2 -0.59,6.6 1.26,9.31 1.45,2.23 4.08,3.4 6.4,4.86 6.6,4.07 11.35,11.73 10.29,19.4 -0.78,5.14 -4.08,9.8 -8.25,12.9 -4.27,3.11 -9.31,4.95 -14.46,6.12 -24.93,5.72 -50.84,-2.33 -74.41,-12.42 -4.47,-1.95 -9.32,-3.98 -14.08,-2.72 -3.39,0.77 -6.11,3.2 -8.73,5.53 -2.52,2.33 -5.52,4.95 -7.66,8.05 -1.26,1.85 -2.24,3.79 -2.62,5.92 -0.19,1.26 -0.19,2.63 0.2,3.88 0.96,4.18 4.07,8.45 6.2,11.64 6.6,9.81 15.52,17.96 25.71,23.97 34.63,20.45 80.81,15.66 114.41,-4.54 24.66,-14.81 38.33,-39.5 30.19,-68.21 -2.41,-8.47 -6.9,-16.26 -12.86,-22.72"
         style="fill:#343634;fill-opacity:1;fill-rule:nonzero;stroke:none"
         id="path116" /><path
         d="m 5465.3,181.66 c 23.19,-18.39 48.34,-34.371 74.85,-47.699 1.36,-0.68 6.8,0.41 8.41,0.469 4.21,0.332 8.41,0.929 12.6,1.789 10.16,2.16 0.53,10.531 -3.4,14.793 -5.13,5.547 -10.69,10.558 -15.65,16.226 -1.12,1.211 -2.15,2.532 -3.18,3.832 -5.92,7.328 -10.7,15.418 -14.68,23.989 -9.06,19.75 -14.95,41.671 -15.29,63.371 -0.36,23.3 1.23,46.621 4.76,69.66 -15.62,0.492 -31.25,0.992 -46.88,1.488 -4.19,-32.129 0.45,-63.59 -0.24,-95.719 -0.14,-6.199 -0.63,-12.41 -1.77,-18.468 -0.22,-1.262 -0.46,-2.442 -0.86,-3.711 -1.26,-4.981 -3.23,-10.078 -3.6,-14.93 -0.42,-5.852 -0.42,-10.789 4.93,-15.09"
         style="fill:#ed9bbc;fill-opacity:1;fill-rule:nonzero;stroke:none"
         id="path118" /><path
         d="m 5517.67,222.98 c 0.85,-0.359 1.65,-0.859 2.37,-1.519 1.69,-1.582 2.55,-3.832 3.36,-6.012 2.87,-7.738 4.7,-14.969 8.97,-22.238 6.4,-10.879 14.45,-23.801 24.6,-31.52 3.86,-2.929 8.22,-5.16 11.84,-8.371 3.62,-3.211 6.5,-7.789 5.99,-12.609 -0.14,-1.473 -0.65,-2.961 -1.69,-4 -1,-1.02 -2.4,-1.512 -3.75,-1.961 -12.24,-4.102 -25.76,-6.398 -37.94,-2.16 -9.31,3.238 -17.86,9.68 -25.85,15.281 -13.4,9.391 -24.95,21.848 -39.06,30.109 -3.59,2.098 -7.46,3.899 -10.37,6.879 -5.13,5.27 -6.33,13.43 -4.85,20.641 1.1,5.43 3.69,13.449 7.48,17.641 2.84,3.14 8.38,1.199 11.78,0.339 4.76,-1.191 9.3,-1.07 14.23,-1.109 7.09,-0.062 14.21,-0.101 21.24,0.84 3.87,0.527 8.23,1.211 11.65,-0.231"
         style="fill:#f8a018;fill-opacity:1;fill-rule:nonzero;stroke:none"
         id="path120" /><path
         d="m 5250,188.199 c -26.31,-13.539 -54.09,-24.34 -82.68,-32.277 -1.47,-0.391 -6.59,1.738 -8.16,2.109 -4.06,1.129 -8.07,2.528 -12.01,4.199 -9.54,4.079 1.53,10.418 6.2,13.829 6.11,4.472 12.55,8.3 18.51,12.89 1.33,0.973 2.6,2.063 3.87,3.141 7.22,6.039 13.48,13.058 19.05,20.68 12.71,17.628 22.75,37.98 27.29,59.199 4.87,22.801 7.83,45.992 8.85,69.261 15.42,-2.539 30.85,-5.082 46.28,-7.621 -2.13,-32.339 -12.79,-62.3 -18.34,-93.949 -1.07,-6.121 -1.78,-12.308 -1.85,-18.461 -0.03,-1.289 -0.03,-2.48 0.12,-3.808 0.27,-5.121 1.22,-10.52 0.63,-15.352 -0.72,-5.82 -1.67,-10.66 -7.76,-13.84"
         style="fill:#ed9bbc;fill-opacity:1;fill-rule:nonzero;stroke:none"
         id="path122" /><path
         d="m 5206.66,238.898 c -0.92,-0.199 -1.8,-0.527 -2.63,-1.039 -1.97,-1.218 -3.25,-3.269 -4.46,-5.238 -4.32,-7.043 -7.51,-13.769 -13.11,-20.07 -8.39,-9.442 -18.79,-20.563 -30.26,-26.153 -4.34,-2.128 -9.07,-3.468 -13.23,-5.918 -4.17,-2.441 -7.89,-6.39 -8.33,-11.199 -0.14,-1.48 0.07,-3.031 0.89,-4.261 0.78,-1.192 2.05,-1.95 3.29,-2.661 11.21,-6.379 24.03,-11.269 36.81,-9.468 9.75,1.371 19.39,6.031 28.33,9.968 14.96,6.602 28.7,16.59 44.14,21.961 3.93,1.371 8.08,2.379 11.51,4.739 6.06,4.171 8.81,11.941 8.77,19.3 -0.03,5.539 -1.02,13.911 -3.92,18.77 -2.17,3.621 -7.99,2.793 -11.49,2.609 -4.89,-0.238 -9.34,0.762 -14.18,1.672 -6.96,1.328 -13.96,2.66 -20.66,4.961 -3.7,1.25 -7.84,2.777 -11.47,2.027"
         style="fill:#f8a018;fill-opacity:1;fill-rule:nonzero;stroke:none"
         id="path124" /><path
         d="M 5581.27,1162.5 H 5319 c -5.33,-27.04 -6.69,-54.54 -11.14,-81.82 -19.74,-120.95 -44.85,-241.45 -57.34,-363.418 -3.07,-29.953 -6.14,-59.903 -9.2,-89.84 -8.88,-86.692 -19.1,-173.192 -28.34,-259.82 -3.7,-34.602 -7.44,-69.411 -17.24,-102.801 27.35,-2.832 54.74,-3.461 81.93,-8.352 14.6,-2.64 16.3,23.242 18.64,32.653 29.6,119.269 50.86,240.328 76.1,360.539 16.69,79.437 41.35,156.699 60.75,235.449 1.69,6.672 6.05,16.449 5.54,23.289 8.68,-115.969 18.39,-232.68 19.01,-348.867 0.44,-80.59 -1.69,-161.172 -3.83,-241.723 -0.66,-24.699 -1.37,-49.418 -3.17,-74.059 29.08,-1.878 58.28,-5.039 87.35,-5.128 20.85,181.449 39.01,363.207 54.44,545.199 10.51,124.07 -1.65,235.019 -10.39,357.279 -0.56,7.88 -0.76,14.98 -0.84,21.42"
         style="fill:#262628;fill-opacity:1;fill-rule:nonzero;stroke:none"
         id="path126" /><path
         d="m 5467.72,1078.13 c 15.27,9.44 29.43,20.85 42.62,33.04 20.25,18.73 41.46,45.32 71.27,47.43 1.43,0.1 2.85,0.13 4.27,0.09 -14.49,55.86 -18.24,115.64 -15.2,170.31 2.7,48.7 9.3,98 16.9,146.2 7.1,45 24.8,84.9 38,127.8 -12.7,7.1 -25.9,13.5 -39.1,19.7 -10.3,4.85 -21.45,7.62 -32.67,9.32 -2.77,0.42 -32.25,4.25 -32.53,2.57 -1.89,-11.15 -5.89,-22.08 -13.4,-33.69 -13.6,-21 -34.3,-41.3 -60.5,-43.3 -17.68,-1.35 -34.85,4.64 -48.28,16.13 -14.23,12.18 -20.96,27.48 -27.32,44.52 -0.86,2.26 -38.26,-18.24 -42.71,-20.67 -7.91,-4.32 -15.81,-8.68 -23.69,-13.07 -2.05,-1.15 -21.3,-10.01 -21.3,-11.71 -0.1,-0.1 -0.2,-0.1 -0.3,-0.2 -1,-0.5 -2,-1.2 -3,-1.9 0,-0.2 0.1,-0.3 0.2,-0.5 8,-27 13.9,-55.4 18.5,-84.2 9.1,-56.1 13.21,-113.9 18,-167.1 0,-0.5 0.1,-1.1 0.1,-1.6 0.01,-41.07 3.69,-82.24 0.53,-123.27 -1.63,-21.02 -5.13,-41.9 -11.52,-62.02 -2.76,-8.73 -5.84,-17.53 -10.1,-25.65 -4.03,-7.68 -11.04,-15.29 -10.91,-24.46 0.12,-10.02 10.6,-16.41 19.99,-19.92 21.81,-8.17 45.24,-12.54 68.55,-12.55 23.58,0 44.72,5.77 66.35,14.67 9.46,3.89 18.53,8.64 27.25,14.03"
         style="fill:#f04043;fill-opacity:1;fill-rule:nonzero;stroke:none"
         id="path128" /><path
         d="m 5556.75,1884.93 c 1.96,-0.01 3.97,-0.17 5.73,-1.04 1.23,-0.61 2.28,-1.54 3.22,-2.54 3.55,-3.73 5.91,-9.38 3.72,-14.04 -2.34,-5.01 -8.57,-6.57 -14.01,-7.55 -3.51,-0.63 -7,-1.26 -10.5,-1.89 -2.84,-0.51 -5.79,-1.07 -8.18,-2.69 -3.1,-2.09 -4.86,-5.66 -7.65,-8.14 -0.43,-0.38 -0.94,-0.75 -1.51,-0.72 -0.51,0.02 -0.94,0.36 -1.31,0.69 -3.9,3.55 -4.96,8.95 -5.17,13.98 -0.21,5.44 1.9,8.05 5.76,11.78 7.92,7.65 18.85,12.22 29.9,12.16"
         style="fill:#343634;fill-opacity:1;fill-rule:nonzero;stroke:none"
         id="path130" /><path
         d="m 5528.1,1111.88 c -0.94,-0.24 -1.96,-0.49 -2.58,-1.22 -0.61,-0.72 -0.71,-1.72 -0.76,-2.65 -1.03,-16.44 0.51,-39.25 14.71,-50.16 6.35,-4.89 14.5,-7.26 22.51,-6.93 5.18,0.21 10.78,1.85 13.62,6.17 4.81,7.37 6.02,16.07 8.55,24.32 2.9,9.43 7.89,15.79 15.99,21.34 8.77,6.02 18.51,11.21 24.82,19.77 0.3,0.4 0.61,0.84 0.62,1.34 0.03,0.88 -0.78,1.53 -1.51,2.02 -9.83,6.64 -19.68,13.29 -29.52,19.94 -0.47,0.32 -0.96,0.64 -1.51,0.72 -0.79,0.11 -1.55,-0.28 -2.24,-0.66 -11.41,-6.18 -25.54,-11.49 -35.67,-19.56 -8.41,-6.68 -16.23,-11.82 -27.03,-14.44"
         style="fill:#e56e98;fill-opacity:1;fill-rule:nonzero;stroke:none"
         id="path132" /><path
         d="m 5777.04,1318.3 c -19,49 -38.01,98 -60.61,145.5 -21.2,44.5 -44.29,91.9 -78.89,127.6 -3.8,3.9 -8,7.3 -12.4,10.2 -13.1,-42.4 -30.5,-81.9 -37.5,-126.4 -1.61,-10.3 -3.21,-20.7 -4.7,-31.1 20.4,-33.8 45.5,-66.6 68.99,-97.7 10.31,-13.5 30.71,-31.8 25.71,-50.3 -1.9,-7 -6.51,-12.8 -11.11,-18.4 -36.71,-44.7 -75.8,-88.94 -104.42,-139.79 15.58,-17.54 25.68,-39.72 42.93,-55.62 5.82,-5.36 10.09,1.69 14.05,5.94 15.71,16.9 29.28,35.56 45.44,52.2 30.71,31.58 60.93,63.26 91.81,94.67 9.79,9.9 19.2,20.5 24.6,33.3 7.3,17.4 2.59,33.2 -3.9,49.9"
         style="fill:#dc252d;fill-opacity:1;fill-rule:nonzero;stroke:none"
         id="path134" /><path
         d="m 5577.07,1055.53 c -0.06,1.76 -0.12,3.07 -0.17,3.06 -7.07,-1.31 -13.49,-3.49 -20.8,-2.62 -6.98,0.84 -13.85,3.94 -18.74,9.5 -5.86,6.67 -8.38,16.24 -8.84,25.59 -0.46,9.35 0.92,18.7 1.83,28.03 0.17,1.64 0.02,3.8 -1.42,4.22 -0.59,0.17 -1.22,-0.04 -1.79,-0.29 -25.09,-10.64 -13.62,-54.26 -0.46,-70.18 6.55,-7.94 15.59,-13.37 25.17,-15.2 7.68,-1.46 23.31,-2.32 25.32,9.29 0.09,0.54 0,5.33 -0.1,8.6"
         style="fill:#3e4041;fill-opacity:1;fill-rule:nonzero;stroke:none"
         id="path136" /><path
         d="m 4663.01,214.09 c -42.04,34.699 -109.53,26.16 -160.01,27.609 -41.34,1.192 -82.68,2.36 -124.02,3.551 -49.7,1.441 -96.12,4.711 -143.89,-11.32 -13.23,-4.45 -30.14,-5.758 -41.37,-14.578 -16.3,-12.84 -20.78,-31.602 -15.56,-51.352 10.48,-39.609 65.6,-71.2891 102.68,-77.4102 52.43,-8.6796 105.68,3.211 157.3,11.7812 57.61,9.559 115.6,16.777 173.78,21.617 23.09,1.922 59.31,2.543 72.85,25.114 13.42,22.367 -4.32,50.597 -21.76,64.988"
         style="fill:#efefed;fill-opacity:1;fill-rule:nonzero;stroke:none"
         id="path138" /><path
         d="m 4569.42,1640.81 c 1.31,6.3 2.01,12.83 2.01,19.52 0,52.78 -42.79,95.56 -95.56,95.56 -52.77,0 -95.56,-42.78 -95.56,-95.56 0,-6.11 0.63,-12.07 1.72,-17.86 -14.51,-9.62 -24.11,-26.06 -24.11,-44.78 0,-29.67 24.05,-53.73 53.72,-53.73 0.8,0 1.57,0.11 2.36,0.15 9.26,-17.15 27.17,-28.94 48.03,-28.94 16.86,0 31.76,7.78 41.81,19.77 10.32,-7.58 23.04,-12.06 36.82,-12.06 34.53,0 62.5,27.98 62.5,62.49 0,24.13 -13.71,45.03 -33.74,55.44"
         style="fill:#060707;fill-opacity:1;fill-rule:nonzero;stroke:none"
         id="path140" /><path
         d="m 4376.69,217.82 c -27.42,-23.379 -57.36,-43.91 -89.04,-61.289 -1.64,-0.883 -8.31,0.219 -10.28,0.219 -5.13,0.211 -10.27,0.762 -15.41,1.641 -12.45,2.179 -1.09,12.781 3.5,18.129 6.01,7 12.57,13.332 18.36,20.429 1.31,1.539 2.51,3.18 3.71,4.821 6.88,9.171 12.35,19.23 16.84,29.82 11.68,28.09 16.49,59.109 18.57,89.269 0.43,8.09 -1.53,15.301 7.86,17.922 3.39,0.879 41.74,2.289 41.74,2.731 0.33,-3.492 0.55,-6.992 0.88,-10.481 -0.23,-0.66 -0.44,-1.312 -0.44,-1.972 -0.33,-15.95 -1.1,-31.911 -0.11,-47.75 0.44,-7.539 1.31,-15.079 2.95,-22.399 0.33,-1.531 0.65,-2.949 1.2,-4.48 1.75,-6.008 4.38,-12.129 5.03,-18.032 0.76,-7.097 0.98,-13.109 -5.36,-18.578"
         style="fill:#ed9bbc;fill-opacity:1;fill-rule:nonzero;stroke:none"
         id="path142" /><path
         d="m 4376.69,217.82 c -27.42,-23.379 -57.36,-43.91 -89.04,-61.289 -1.64,-0.883 -8.31,0.219 -10.28,0.219 -5.13,0.211 -10.27,0.762 -15.41,1.641 -12.45,2.179 -1.09,12.781 3.5,18.129 6.01,7 12.57,13.332 18.36,20.429 1.31,1.539 2.51,3.18 3.71,4.821 0.12,-0.231 0.22,-0.442 0.33,-0.661 2.63,-3.39 6.89,-5.679 11.14,-6.328 6.89,-0.883 13.77,1.52 20,4.469 24.7,11.469 45.45,31.141 58.02,55.18 1.75,-6.008 4.38,-12.129 5.03,-18.032 0.76,-7.097 0.98,-13.109 -5.36,-18.578"
         style="fill:#060707;fill-opacity:1;fill-rule:nonzero;stroke:none"
         id="path144" /><path
         d="m 4615.88,139.699 c -4.92,-1.308 -10.06,-2.41 -15.08,-3.058 -1.97,-0.211 -8.52,-1.961 -10.27,-1.2 -33.22,14.207 -64.9,31.797 -94.51,52.45 -6.89,4.808 -7.11,10.929 -7.11,18.031 0,6.34 2.41,13 3.61,19.558 0.21,1.079 0.43,2.29 0.55,3.379 0.76,7.43 0.97,15.09 0.65,22.621 -0.44,15.84 -2.73,31.68 -4.7,47.418 -0.11,0.774 -0.33,1.422 -0.66,1.973 v 10.488 c 0,-0.328 38.36,1.961 41.75,1.313 9.61,-1.641 8.3,-9.07 9.61,-17.051 4.92,-29.832 12.67,-60.312 26.99,-87.082 6.44,-11.801 14.2,-22.937 23.82,-32.457 0.44,-0.434 0.87,-0.871 1.31,-1.301 6.12,-6.011 12.67,-11.371 18.9,-17.269 5.02,-4.91 17.38,-14.422 5.14,-17.813"
         style="fill:#ed9bbc;fill-opacity:1;fill-rule:nonzero;stroke:none"
         id="path146" /><path
         d="m 4615.88,139.699 c -4.92,-1.308 -10.06,-2.41 -15.08,-3.058 -1.97,-0.211 -8.52,-1.961 -10.27,-1.2 -33.22,14.207 -64.9,31.797 -94.51,52.45 -6.89,4.808 -7.11,10.929 -7.11,18.031 0,6.34 2.41,13 3.61,19.558 6.34,-4.039 12.01,-13.011 15.62,-16.941 10.49,-11.59 24.48,-20.769 37.37,-29.391 0.33,-0.218 0.65,-0.437 1.09,-0.66 11.14,-7.539 32.67,-21.957 43.38,-7.539 0.87,1.211 1.42,2.41 1.86,3.832 6.12,-6.011 12.67,-11.371 18.9,-17.269 5.02,-4.91 17.38,-14.422 5.14,-17.813"
         style="fill:#060707;fill-opacity:1;fill-rule:nonzero;stroke:none"
         id="path148" /><path
         d="m 4502.29,1514.55 c -12.96,27.25 -1.54,56.82 5.45,84.41 -0.84,0.01 -1.6,0.03 -2.08,0.09 l -56.51,6.86 c -1.21,0.14 -12.04,2.55 -12.78,1.55 -4.21,-5.6 -3.98,-13.07 -4.75,-20.73 -1.21,-12.16 -1.67,-24.04 -4.47,-35.05 -2.86,-11.25 -10.21,-20.02 -17.59,-28.64 -8.38,-9.8 -16.7,-19.27 -25.8,-28.43 -7.47,-22.81 10.22,-56.26 22.43,-74.04 14.33,-20.85 37.66,-33.68 62.69,-32.99 27.85,0.78 47.91,18.79 59.25,44.82 4.69,10.74 8.02,22.08 10.44,33.58 1.08,5.08 2.62,10.17 3.5,15.31 -16.7,6.44 -31.85,16.59 -39.78,33.26"
         style="fill:#e56e98;fill-opacity:1;fill-rule:nonzero;stroke:none"
         id="path150" /><path
         d="m 4538.52,1655.17 c -3.01,1.13 -5.84,1.4 -8.55,1.1 -0.6,8.26 -2.38,16.37 -6.64,23.02 -7.54,11.79 -17.76,22.76 -29.3,30.71 -10.6,7.31 -22.74,12.22 -35.13,15.56 -11.18,3.02 -23.6,6.17 -34.42,0.53 -10.83,-5.64 -17.43,-17.21 -21.95,-28.09 -9.94,-23.94 -12.56,-50.34 -7.51,-75.77 2.54,-12.81 6.92,-25.23 12.7,-36.93 5.02,-10.13 11.34,-25.06 22.35,-29.78 13.1,-5.62 31.63,1.39 43.9,6.59 15.81,6.66 30.55,16.83 40.82,30.73 0.12,0.17 0.23,0.35 0.35,0.52 14.42,5.33 27.33,14.9 34.04,28.87 5.89,12.23 3.01,27.77 -10.66,32.94"
         style="fill:#f086a5;fill-opacity:1;fill-rule:nonzero;stroke:none"
         id="path152" /><path
         d="m 4517.63,1738.85 c -12.17,10.78 -28.48,16.86 -44.79,17.03 -22.72,0.24 -46.34,-10.2 -60.41,-28.22 -1.75,-2.24 -8.86,-9.78 -6.94,-13.01 0.37,-0.63 0.68,-1.24 1.11,-1.89 14.01,-20.96 33.29,-38.6 56.11,-49.33 22.81,-10.74 49.16,-14.35 73.73,-8.72 0.72,0.17 1.47,0.35 2,0.86 0.67,0.66 0.82,1.66 0.94,2.59 2.7,21.61 1.79,45.24 -8.92,64.73 -3.35,6.09 -7.73,11.43 -12.83,15.96"
         style="fill:#1c1d1a;fill-opacity:1;fill-rule:nonzero;stroke:none"
         id="path154" /><path
         d="m 4609.11,591.211 c -14.39,31.961 -27.34,64.469 -37.12,98.891 -13.82,48.617 -22.84,98.609 -26.83,148.988 -3.9,49.14 3.63,99.148 -3.22,147.609 -8.33,58.871 -29.9,114.941 -51.31,170.431 -2.36,6.1 -5.07,12.64 -10.71,15.97 -3.93,2.31 -8.68,2.67 -13.24,2.97 -43.31,2.82 -86.61,5.66 -129.92,8.48 -9.35,0.62 -32.06,-80.07 -34.67,-89.65 -8.73,-32.08 -13.58,-62.59 -16.69,-95.841 -6.69,-71.52 -10.03,-143.34 -11.13,-215.149 -2.23,-143.961 4.5,-287.859 11.23,-431.621 0.87,-18.391 2.01,-37.75 11.88,-53.309 11.77,-18.558 33.54,-27.98 54.54,-34.449 56.86,-17.5 117.97,-20.992 176.45,-10.082 58.01,10.821 118.06,40.481 140.64,95 22.43,54.141 1.68,113.961 -22.56,163.602 -12.8,26.187 -25.56,51.988 -37.34,78.16"
         style="fill:#1c1d1a;fill-opacity:1;fill-rule:nonzero;stroke:none"
         id="path156" /><path
         d="m 4552.69,1472.47 c -4.66,3.41 -8.39,6.06 -9.42,6.67 -2.72,1.65 -5.55,3.15 -8.19,4.92 -1.04,0.69 -5.84,5.25 -7.28,4.08 -0.26,-0.22 -0.51,-0.37 -0.81,-0.7 -1.78,-1.98 -2.91,-4.55 -3.88,-6.99 -2.15,-5.4 -3.11,-11.23 -5.5,-16.54 -15.27,-33.97 -52.73,-62.45 -90.54,-44.03 -18.85,9.18 -29.7,28.4 -36.04,47.62 -1.52,4.59 -2.79,9.27 -3.83,14 -0.71,3.14 -0.78,9.52 -2.85,12.58 -3.16,-0.7 -6.27,-1.54 -9.36,-2.47 -6.89,-3.82 -14.51,-6.06 -22.1,-8.04 -3.83,-1 -7.67,-1.92 -11.48,-2.96 -1.06,-0.28 -10.89,-2.93 -10.86,-3.62 0.3,-7.36 1.14,-16.54 1.25,-18.45 4.1,-73.27 20.43,-151.4 -3.03,-223.07 -2.76,-8.46 -5.34,-16.99 -7.77,-25.55 -1.17,-4.1 -2.29,-8.21 -3.39,-12.32 -0.72,-2.66 -4.31,-10.6 -3.36,-13.09 1.69,-4.45 16.4,-8.14 20.73,-9.71 6.98,-2.54 14.09,-4.73 21.16,-7.03 23.1,-7.56 45.91,-9.44 70.14,-10.16 15.62,-0.46 31.27,-1.3 46.9,-0.71 7.85,0.3 15.69,0.93 23.43,2.19 3.65,0.59 7.86,0.99 11.33,2.33 5.25,2.03 3.23,3.73 2.21,8.56 -1.06,4.9 -1.35,10.04 -1.73,15.02 -0.67,8.52 -0.68,17.09 -1.35,25.6 -2.27,28.79 1.28,56.33 6.98,84.63 0.71,3.48 1.43,6.96 2.14,10.45 3,14.57 6.97,28.63 12.84,42.37 8.2,19.21 16.72,38.27 25.56,57.19 3.62,7.77 7.21,15.85 10.89,23.7 1.34,2.85 2.63,5.88 4.02,8.91 2.06,4.47 4.42,8.8 6.95,13.03 0.31,0.52 0.63,1.04 0.94,1.56 0.62,1 -14.32,12.42 -24.7,20.03"
         style="fill:#f25453;fill-opacity:1;fill-rule:nonzero;stroke:none"
         id="path158" /><path
         d="m 4739.56,1049.99 c -2.29,-10.27 -15.52,-23.06 -23.83,-10.38 -1.85,2.84 -3.05,6.12 -5.02,8.85 -6.56,9.29 -19.23,10.27 -28.08,16.5 -8.3,5.9 -14.75,13.77 -20.76,21.85 -0.55,0.77 -1.09,1.64 -1.64,2.4 -3.06,4.38 -6.01,8.75 -9.07,13.01 -28.63,40.65 -68.18,73.97 -89.7,118.77 -16.72,34.64 -21.42,73.54 -25.46,111.78 -2.95,27.97 -5.69,56.05 -5.9,84.13 0,9.18 0.21,18.47 3.39,26.99 2.72,7.65 8.19,14.64 15.5,17.92 0.99,0.33 1.87,0.65 2.85,0.98 20.76,5.8 31.79,-20.21 36.06,-35.4 6.34,-21.74 6.45,-44.8 6.45,-67.19 0,-29.4 0,-58.68 0.1,-88.07 0,-7.54 0,-15.3 3.28,-22.18 2.85,-6.12 7.97,-10.93 12.68,-15.85 29.06,-30.59 42.17,-72.44 62.61,-109.37 2.72,-4.92 5.67,-9.84 9.17,-14.43 4.04,-5.57 8.85,-10.49 14.65,-14.2 8.19,-5.14 17.81,-7.43 26,-12.46 12.01,-7.32 19.99,-19.01 16.72,-33.65"
         style="fill:#e56e98;fill-opacity:1;fill-rule:nonzero;stroke:none"
         id="path160" /><path
         d="m 4361.17,1427.39 c -4.04,-27.86 -10.71,-55.28 -17.59,-82.6 -9.28,-37.26 -19.45,-75.18 -40.87,-107.08 -27.64,-41.3 -71.45,-68.73 -105.54,-104.9 -3.28,-3.49 -6.46,-6.99 -9.84,-10.49 -0.33,-0.32 -0.65,-0.76 -0.98,-1.09 -7.54,-7.98 -15.63,-15.84 -25.57,-20.87 -9.73,-4.91 -22.29,-4.15 -30.15,-12.45 -2.3,-2.41 -3.94,-5.47 -6.13,-7.98 -10.05,-11.47 -21.31,3.06 -22.18,13.66 -1.2,14.86 8.31,25.35 21.2,30.92 8.85,3.83 18.79,4.7 27.53,8.63 6.01,2.74 11.25,6.66 15.84,11.25 4.38,4.27 8.21,8.97 11.81,13.77 25.35,33.66 44.36,73.21 77.35,99.43 5.37,4.27 11.04,8.2 14.87,13.99 4.04,6.23 5.24,13.99 6.34,21.41 4.15,29.07 8.3,58.14 12.45,87.2 3.17,22.18 6.56,45.02 15.74,65.67 6.44,14.42 20.98,38.57 40.64,29.94 0.99,-0.44 1.86,-0.88 2.74,-1.42 6.77,-4.15 11.25,-11.92 12.89,-19.78 1.85,-8.96 0.87,-18.25 -0.55,-27.21"
         style="fill:#e56e98;fill-opacity:1;fill-rule:nonzero;stroke:none"
         id="path162" /><path
         d="m 4426.85,1448.14 c -7.86,9.06 -14.84,18.42 -20.3,29.16 -2.81,5.54 -5.11,11.32 -7.17,17.18 -0.99,2.85 -1.84,5.75 -2.83,8.6 -0.5,1.43 -0.48,5.04 -1.36,6.04 -0.13,0.14 -10.47,-7.32 -11.73,-7.99 -22.43,-12.02 -50.97,-15.88 -67.54,-36.95 -4.37,-5.55 -7.62,-11.89 -10.47,-18.32 -9.18,-20.65 -12.57,-43.49 -15.74,-65.67 -4.15,-29.06 -8.3,-58.13 -12.45,-87.2 -1.1,-7.42 -2.3,-15.18 -6.34,-21.41 -3.83,-5.79 -9.5,-9.72 -14.87,-13.99 -32.99,-26.22 -52,-65.77 -77.35,-99.43 -3.6,-4.8 -7.43,-9.5 -11.81,-13.77 4.7,-5.13 9.41,-10.27 14.11,-15.4 2.07,-2.19 4.25,-4.48 6.33,-6.67 3.38,3.5 6.56,7 9.84,10.49 34.09,36.17 77.9,63.6 105.54,104.9 19.5,29.03 29.65,63.05 38.33,97.02 0.69,-33.27 -1.89,-66.26 -12.27,-97.98 -5.88,-17.91 -10.92,-36.09 -15.71,-54.32 -0.93,-3.55 -1.87,-7.11 -2.8,-10.67 -0.99,-3.76 -2.41,-6.1 0.79,-8.97 3.98,-3.55 8.01,-7.04 12.09,-10.47 7.1,-5.95 14.03,-12.12 21.37,-17.78 3.68,-2.83 7.47,-5.55 11.42,-8 2.73,-1.7 7.57,-5.66 10.97,-4.92 3.34,0.72 3.88,4.72 3.98,7.52 0.26,7.14 0.52,14.28 0.77,21.41 0.22,6.12 1.06,12.02 1.48,18.05 0.26,3.77 0.63,7.53 0.93,11.3 2.16,25.16 5.51,50.01 9.39,74.95 4.42,28.51 10.22,56.8 16.59,84.95 4.07,17.97 8.37,35.9 12.67,53.82 2.21,9.22 4.46,18.45 7.08,27.56 1.3,4.56 2.71,9.09 4.25,13.57 0.9,2.62 4.68,9.14 3.79,11.89 -0.18,0.57 -0.58,1.04 -0.98,1.5"
         style="fill:#408590;fill-opacity:1;fill-rule:nonzero;stroke:none"
         id="path164" /><path
         d="m 4673.02,1124.73 c -20.44,36.93 -33.55,78.78 -62.61,109.37 -4.71,4.92 -9.83,9.73 -12.68,15.85 -3.28,6.88 -3.28,14.64 -3.28,22.18 0,18.39 0.43,36.91 -0.17,55.28 -0.74,22.22 2.29,44.43 0.06,66.56 -1.55,15.17 -3.6,31.83 -9.62,45.92 -5.37,12.57 -14.38,21 -25.23,28.93 -8.56,6.25 -17.21,12.42 -26.31,17.9 -7.4,4.51 -15.35,8.53 -20.79,15.53 -0.4,0.52 -0.84,1.08 -1.47,1.21 -1.18,0.25 -2.05,-1.04 -2.55,-2.14 -4.96,-10.93 -9.85,-21.92 -15.98,-32.24 -3.94,-6.66 -8.42,-13.06 -13.64,-18.8 -4.45,-4.89 -9.53,-10.32 -15.95,-12.51 -0.98,-0.33 -2.01,-0.6 -2.87,-1.19 -1.53,-1.06 -1.5,-2.89 -1.42,-4.57 1.75,-36.99 0.92,-74.16 -0.96,-111.14 -0.94,-18.37 -2.34,-36.71 -4.54,-54.98 -1.92,-15.95 -4.19,-31.87 -6.91,-47.71 -2.74,-16.04 -6.57,-31.88 -10.66,-47.62 -2.05,-7.88 -4.17,-15.74 -6.26,-23.6 -1.56,-5.85 -4.94,-13.41 2.06,-17.07 5.17,-2.7 11.04,-2.66 16.71,-2.22 10.72,0.83 21.43,2.11 31.97,4.28 9.87,2.03 20.76,4.32 29.32,9.93 2.42,1.58 4.59,3.65 5.86,6.25 2.63,5.42 0,11.8 -2.11,16.93 -3.93,9.53 -4.59,19.99 -5.4,30.15 -1.08,13.49 -0.52,27.02 -0.65,40.54 -0.19,21.61 4.93,42 9.94,62.85 4.23,17.69 8.95,35.3 14.97,52.49 0.59,1.71 1.21,3.42 1.83,5.12 0.73,-7.82 1.5,-15.64 2.32,-23.44 4.04,-38.24 8.74,-77.14 25.46,-111.78 21.52,-44.8 61.07,-78.12 89.7,-118.77 3.06,-4.26 6.01,-8.63 9.07,-13.01 0.55,-0.76 1.09,-1.63 1.64,-2.4 0.98,1.2 1.86,2.3 2.84,3.39 5.79,6.77 11.58,13.44 17.48,20.1 -3.5,4.59 -6.45,9.51 -9.17,14.43"
         style="fill:#408590;fill-opacity:1;fill-rule:nonzero;stroke:none"
         id="path166" /><path
         d="m 4422.65,1442.03 c 0,-3.88 -3.15,-7.03 -7.03,-7.03 -3.88,0 -7.04,3.15 -7.04,7.03 0,3.88 3.16,7.03 7.04,7.03 3.88,0 7.03,-3.15 7.03,-7.03"
         style="fill:#1c484b;fill-opacity:1;fill-rule:nonzero;stroke:none"
         id="path168" /><path
         d="m 4403.27,1382.34 c 0,-3.88 -3.14,-7.03 -7.03,-7.03 -3.88,0 -7.03,3.15 -7.03,7.03 0,3.89 3.15,7.04 7.03,7.04 3.89,0 7.03,-3.15 7.03,-7.04"
         style="fill:#1c484b;fill-opacity:1;fill-rule:nonzero;stroke:none"
         id="path170" /><path
         d="m 4389.01,1318.36 c 0,-3.88 -3.14,-7.03 -7.03,-7.03 -3.88,0 -7.03,3.15 -7.03,7.03 0,3.88 3.15,7.03 7.03,7.03 3.89,0 7.03,-3.15 7.03,-7.03"
         style="fill:#1c484b;fill-opacity:1;fill-rule:nonzero;stroke:none"
         id="path172" /><path
         d="m 4378.7,1244.92 c 0,-3.88 -3.14,-7.03 -7.03,-7.03 -3.89,0 -7.03,3.15 -7.03,7.03 0,3.88 3.14,7.03 7.03,7.03 3.89,0 7.03,-3.15 7.03,-7.03"
         style="fill:#1c484b;fill-opacity:1;fill-rule:nonzero;stroke:none"
         id="path174" /><path
         d="m 4369.77,1174.3 c 0,-3.89 -3.15,-7.03 -7.04,-7.03 -3.87,0 -7.03,3.14 -7.03,7.03 0,3.88 3.16,7.03 7.03,7.03 3.89,0 7.04,-3.15 7.04,-7.03"
         style="fill:#1c484b;fill-opacity:1;fill-rule:nonzero;stroke:none"
         id="path176" /><path
         d="m 3647.16,245.191 c -21.44,7.61 -46.79,4.61 -69.02,4.008 -37.98,-1.051 -75.94,-3.027 -113.94,-3.719 -73.72,-1.351 -146.17,2.481 -217.2,23.68 -5.16,1.539 -9.77,1.281 -13.67,-0.211 -22.23,0.723 -44.72,-13.211 -59.82,-33.488 -30.04,-40.359 -17.74,-77.031 19.84,-106.5 42.87,-33.6094 98.02,-50.461 152.52,-45.7227 63.23,5.5117 119.34,40.6327 182.75,44.7497 47.09,3.051 111.61,-5.718 144,37.871 22.67,30.52 9.57,66.879 -25.46,79.332"
         style="fill:#efefed;fill-opacity:1;fill-rule:nonzero;stroke:none"
         id="path178" /><path
         d="m 3570.44,1455.43 c 2.64,-20.16 5.27,-40.31 7.91,-60.47 4.67,-35.65 9.34,-71.36 11.03,-107.33 0.3,-6.21 0.49,-12.52 -0.93,-18.55 -1.76,-7.47 -5.87,-14.04 -9.91,-20.43 -31.29,-49.53 -62.58,-99.06 -93.86,-148.6 -5.07,-8.02 -10.27,-16.19 -17.45,-22.11 -1.98,-1.62 -4.23,-3.1 -6.71,-3.16 -2.55,-0.05 -4.88,1.41 -7.03,2.85 -8.79,5.89 -17.3,12.26 -25.47,19.07 -2.95,2.46 -5.99,5.14 -7.35,8.86 -1.6,4.4 -0.56,9.35 0.49,13.95 9.05,39.45 18.22,79.09 32.4,116.92 7.29,19.45 15.89,38.39 26.4,56.13 12.44,21 16.57,30.73 11.23,56.27 -13.81,65.99 -31.13,173.74 20.46,227.53 18.86,19.67 40.87,15.8 44.59,-11.72 4.9,-36.37 9.43,-72.82 14.2,-109.21"
         style="fill:#ebeae7;fill-opacity:1;fill-rule:nonzero;stroke:none"
         id="path180" /><path
         d="m 3267.25,1817.92 c 0,-45.31 29.01,-83.73 69.08,-96.83 9.7,-3.2 19.99,-4.95 30.66,-4.95 47.44,0 87.03,33.77 97.22,78.98 -0.49,21.83 -4.76,46.09 -14.55,66.17 1.26,1.85 2.22,3.79 2.62,5.92 0.19,1.26 0.19,2.63 -0.2,3.88 -16.59,27.66 -45.8,46.58 -79.46,48.52 h -2.43 c -1.07,0.09 -2.13,0.09 -3.2,0.09 -55.11,0 -99.74,-45.5 -99.74,-101.78"
         style="fill:#1c1d1a;fill-opacity:1;fill-rule:nonzero;stroke:none"
         id="path182" /><path
         d="m 3317.68,1671.08 c 17.67,27.24 9.65,60.4 6.07,90.81 0.91,-0.11 1.72,-0.19 2.24,-0.2 l 61.26,-0.64 c 1.29,-0.02 13.19,1.02 13.84,-0.15 3.7,-6.56 2.41,-14.5 2.14,-22.78 -0.41,-13.14 -1.6,-25.87 -0.16,-38.02 1.46,-12.4 8.06,-22.8 14.72,-33.03 3.95,-6.61 8.49,-12.95 12.87,-19.28 3.94,-5.66 6.61,-10.52 11.94,-14.94 3.08,-2.57 6.28,-5.27 7.94,-8.92 2.78,-6.12 0.64,-13.24 -1.61,-19.57 -4.37,-12.22 -9.14,-24.4 -15.94,-35.45 -6.8,-11.06 -15.77,-21.02 -27.09,-27.39 -3.53,-1.98 -7.25,-3.6 -11.04,-5.04 -15.52,-5.93 -32.39,-8.92 -48.89,-6.94 -16.51,1.98 -31.62,6 -44.19,17.58 -11.54,10.63 -18.95,25.04 -23.24,39.98 -3.48,12.11 -5.44,24.68 -6.4,37.29 -0.43,5.57 -1.36,11.21 -1.57,16.82 18.72,4.52 36.3,13.21 47.11,29.87"
         style="fill:#e56e98;fill-opacity:1;fill-rule:nonzero;stroke:none"
         id="path184" /><path
         d="m 3295.58,1765.04 c 5.43,-11.25 14.74,-19.99 25.61,-26 4.46,-2.52 9.99,-3.3 11.94,-8.25 1.35,-3.49 2.04,-6.69 3.2,-9.7 0.96,-3.01 2.42,-5.72 5.23,-8.45 4.38,-4.16 10.2,-6.88 15.43,-9.21 17.47,-7.86 38.91,-16.11 58.41,-14.94 25.81,1.65 34.54,24.15 40.75,45.89 3.89,13.88 6.6,28.04 7.67,42.5 0.39,5.72 0.58,11.93 0.39,18.24 -0.49,21.83 -4.76,46.09 -14.55,66.17 -9.81,20.09 -25.04,36.1 -47.55,41.72 -29.88,7.57 -64.03,-8.05 -80.24,-33.57 -5.92,-9.31 -9.51,-20.18 -11.25,-31.05 -0.49,-3 -1.95,-36.77 0.96,-36.77 -0.28,-0.1 -0.67,-0.1 -0.96,-0.19 -1.17,-0.2 -2.33,-0.49 -3.5,-0.97 -14.75,-5.53 -17.85,-22.32 -11.54,-35.42"
         style="fill:#f086a5;fill-opacity:1;fill-rule:nonzero;stroke:none"
         id="path186" /><path
         d="m 3295.48,1818.79 c 3.79,-6.59 9.51,-12.03 15.14,-17.36 6.98,-6.5 13.77,-12.91 16.59,-21.84 0.29,-1.06 0.96,-2.32 2.04,-2.23 0.67,0.1 1.16,0.88 1.45,1.46 4.85,9.89 8.05,20.57 9.31,31.44 0.39,3.2 0.59,6.6 -1.26,9.31 -1.46,2.23 -4.07,3.4 -6.4,4.86 -6.6,4.07 -11.35,11.73 -10.29,19.4 0.78,5.14 4.08,9.8 8.25,12.9 4.27,3.11 9.32,4.95 14.46,6.12 24.94,5.72 50.85,-2.33 74.42,-12.42 4.46,-1.95 9.32,-3.98 14.07,-2.72 3.39,0.77 6.11,3.2 8.73,5.53 2.52,2.33 5.53,4.95 7.67,8.05 1.26,1.85 2.22,3.79 2.62,5.92 0.19,1.26 0.19,2.63 -0.2,3.88 -0.97,4.18 -4.07,8.45 -6.21,11.64 -6.59,9.81 -15.53,17.96 -25.71,23.97 -14.26,8.44 -30.95,12.52 -47.54,12.91 h -2.43 c -12.81,0 -25.62,-2.14 -37.26,-7.28 -12.42,-5.34 -23.48,-13.97 -30.95,-25.32 -4.18,-6.41 -7.18,-13.59 -9.12,-21.06 -1.45,-5.82 -2.33,-11.84 -2.71,-17.85 -0.59,-9.99 0.38,-20.47 5.33,-29.31"
         style="fill:#1c1d1a;fill-opacity:1;fill-rule:nonzero;stroke:none"
         id="path188" /><path
         d="m 3333.57,201.66 c -23.17,-18.39 -48.34,-34.371 -74.84,-47.699 -1.37,-0.68 -6.81,0.41 -8.42,0.469 -4.21,0.332 -8.4,0.929 -12.59,1.789 -10.15,2.16 -0.52,10.531 3.39,14.793 5.14,5.547 10.71,10.558 15.66,16.226 1.12,1.211 2.16,2.532 3.19,3.832 5.91,7.328 10.68,15.418 14.67,23.989 9.06,19.75 14.95,41.671 15.29,63.371 0.35,23.3 -1.24,46.621 -4.76,69.66 15.63,0.492 31.26,0.992 46.88,1.488 4.19,-32.129 -0.46,-63.59 0.24,-95.719 0.14,-6.199 0.64,-12.41 1.77,-18.468 0.23,-1.262 0.45,-2.442 0.85,-3.711 1.26,-4.981 3.24,-10.078 3.61,-14.93 0.42,-5.852 0.43,-10.789 -4.94,-15.09"
         style="fill:#ed9bbc;fill-opacity:1;fill-rule:nonzero;stroke:none"
         id="path190" /><path
         d="m 3281.22,242.98 c -0.86,-0.359 -1.66,-0.859 -2.37,-1.519 -1.7,-1.582 -2.56,-3.832 -3.36,-6.012 -2.88,-7.738 -4.71,-14.969 -8.98,-22.238 -6.39,-10.879 -14.44,-23.801 -24.61,-31.52 -3.84,-2.929 -8.22,-5.16 -11.83,-8.371 -3.61,-3.211 -6.5,-7.789 -6,-12.609 0.16,-1.473 0.66,-2.961 1.7,-4 1.01,-1.02 2.39,-1.512 3.75,-1.961 12.24,-4.102 25.76,-6.398 37.95,-2.16 9.3,3.238 17.84,9.68 25.85,15.281 13.4,9.391 24.93,21.848 39.04,30.109 3.6,2.098 7.47,3.899 10.38,6.879 5.13,5.27 6.32,13.43 4.86,20.641 -1.11,5.43 -3.69,13.449 -7.49,17.641 -2.83,3.14 -8.37,1.199 -11.78,0.339 -4.76,-1.191 -9.31,-1.07 -14.23,-1.109 -7.09,-0.062 -14.22,-0.101 -21.24,0.84 -3.87,0.527 -8.22,1.211 -11.64,-0.231"
         style="fill:#060707;fill-opacity:1;fill-rule:nonzero;stroke:none"
         id="path192" /><path
         d="m 3491.44,190.422 c 24.2,-17.012 50.25,-31.512 77.48,-43.293 1.4,-0.59 6.76,0.82 8.37,0.973 4.18,0.57 8.34,1.41 12.48,2.519 10.01,2.738 -0.09,10.527 -4.25,14.559 -5.45,5.25 -11.29,9.929 -16.57,15.289 -1.2,1.152 -2.3,2.402 -3.4,3.64 -6.34,6.981 -11.58,14.782 -16.05,23.102 -10.18,19.199 -17.34,40.73 -18.93,62.379 -1.71,23.23 -1.48,46.609 0.71,69.808 -15.64,-0.41 -31.26,-0.816 -46.9,-1.218 -2.31,-32.321 4.15,-63.461 5.32,-95.578 0.22,-6.192 0.09,-12.422 -0.7,-18.543 -0.14,-1.27 -0.31,-2.457 -0.63,-3.75 -0.98,-5.047 -2.65,-10.25 -2.74,-15.11 -0.07,-5.871 0.21,-10.808 5.81,-14.777"
         style="fill:#ed9bbc;fill-opacity:1;fill-rule:nonzero;stroke:none"
         id="path194" /><path
         d="m 3541.31,234.711 c 0.88,-0.32 1.7,-0.762 2.45,-1.391 1.79,-1.468 2.77,-3.679 3.71,-5.8 3.31,-7.571 5.56,-14.668 10.24,-21.68 7.03,-10.488 15.81,-22.918 26.4,-30.039 4.02,-2.699 8.51,-4.68 12.3,-7.672 3.8,-2.988 6.94,-7.41 6.72,-12.238 -0.07,-1.481 -0.48,-2.993 -1.46,-4.102 -0.95,-1.07 -2.3,-1.641 -3.63,-2.18 -11.99,-4.8 -25.34,-7.871 -37.77,-4.347 -9.47,2.699 -18.38,8.629 -26.69,13.75 -13.92,8.597 -26.16,20.367 -40.72,27.808 -3.72,1.879 -7.68,3.45 -10.76,6.27 -5.43,4.949 -7.09,13.031 -6.05,20.308 0.79,5.493 2.91,13.641 6.46,18.051 2.65,3.301 8.28,1.672 11.74,1.02 4.81,-0.91 9.34,-0.528 14.27,-0.278 7.08,0.36 14.19,0.707 21.15,2.079 3.83,0.742 8.14,1.679 11.64,0.441"
         style="fill:#060707;fill-opacity:1;fill-rule:nonzero;stroke:none"
         id="path196" /><path
         d="m 3449.52,383.98 c 3.09,-24.199 2.82,-54.019 7.61,-79.832 39.24,-0.078 78.7,-0.636 117.98,-2.5 -5.65,251.961 -23.17,503.653 -52.68,753.942 -0.54,4.53 -1.24,9.42 -4.45,12.67 -3.56,3.6 -9.09,4.1 -14.15,4.38 -78.6,4.39 -157.39,4.94 -236.05,1.75 -29.71,-1.2 -52.66,-7.73 -66.94,-21.05 -9.01,-8.43 1.05,-51.04 1.92,-62.512 2.32,-30.348 4.63,-60.707 6.95,-91.066 8.86,-116.453 14.5,-233.422 23.18,-349.672 1.42,-17.758 10.43,-170.16 17.47,-235.031 25.13,-0.84 50.26,-1.028 75.4,-1.661 8.63,-0.226 19.66,0.832 30.06,0.122 -2.16,216.199 4.58,432.468 20.28,648.101 -2.04,-28 6.79,-60.98 10.58,-88.793 4.04,-29.726 9.31,-59.207 13.87,-88.859 15.15,-98.571 22.65,-198.028 35.65,-296.899 4.43,-34.359 8.95,-68.711 13.32,-103.09"
         style="fill:#172642;fill-opacity:1;fill-rule:nonzero;stroke:none"
         id="path198" /><path
         d="m 3355.51,344.691 c 1.35,0.18 2.69,0.399 4.04,0.641 0.4,0.078 0.83,0.148 1.22,0.02 1.02,-0.332 1.15,-1.704 1.1,-2.774 -0.43,-8.148 -0.85,-16.297 -1.28,-24.449 -0.3,-5.719 2.46,-14.801 -5.89,-14.359 -17.13,0.902 -34.14,-2.821 -51.28,-3.711 -14.19,-0.731 -28.41,0.492 -42.57,1.711 -4.29,0.371 -8.95,0.902 -12.02,3.902 -3.94,3.84 -3.77,10.058 -3.69,15.547 0.06,4.211 -0.1,8.429 -0.46,12.633 -0.23,2.578 -2.75,10.636 -1.51,12.738 2.07,3.519 20.23,-0.731 24.23,-1.039 18.64,-1.512 37.34,-1.84 56.02,-1.871 10.83,-0.008 21.46,-0.442 32.09,1.011"
         style="fill:#375682;fill-opacity:1;fill-rule:nonzero;stroke:none"
         id="path200" /><path
         d="m 3449.67,301.398 c 0.16,-0.957 0.34,-1.937 0.89,-2.738 0.68,-1 1.84,-1.57 2.97,-2.051 2.81,-1.211 5.74,-2.14 8.74,-2.789 5.62,-1.23 11.4,-1.449 17.16,-1.648 29.81,-1.024 59.72,-1.543 89.39,1.5 3.1,0.308 6.6,0.898 8.38,3.457 0.94,1.371 1.23,3.07 1.46,4.723 1.17,7.968 1.97,16.007 2.38,24.058 0.21,4.301 -0.22,9.539 -4.08,11.41 -2.58,1.262 -5.62,0.399 -8.42,-0.261 -7.98,-1.879 -16.27,-1.918 -24.49,-1.938 -9.96,-0.031 -19.93,-0.062 -29.89,-0.09 -7.34,-0.019 -14.7,-0.043 -22.03,0.219 -6.15,0.219 -12.3,0.641 -18.43,1.051 -5.42,0.359 -10.84,0.73 -16.25,1.09 -5.63,0.379 -9.19,2.379 -9.72,-4.02 -0.85,-10.551 0.19,-21.57 1.94,-31.973"
         style="fill:#375682;fill-opacity:1;fill-rule:nonzero;stroke:none"
         id="path202" /><path
         d="m 3495.4,1309.94 c 7.24,80.89 12.9,172.21 36.73,252.1 -15.43,8.31 -30.84,16.66 -45.94,25.48 -13.34,7.79 -31.04,14.82 -44.35,25.17 -7.9,-35.42 -37.15,-67.12 -76.41,-64.05 -26.23,2.05 -46.89,22.34 -60.46,43.31 -9.76,15.07 -14.01,28.86 -14.86,43.53 -21.11,-7.29 -42.94,-11.88 -63.8,-21.71 -13.17,-6.21 -26.39,-12.55 -39.08,-19.71 13.27,-42.84 30.93,-82.81 38.02,-127.82 7.58,-48.17 14.17,-97.41 16.91,-146.12 3.84,-68.26 -2.63,-144.56 -27.8,-211.06 2.92,-1.06 5.76,-2.36 8.41,-3.87 62.25,-35.3 130.76,-61.64 203.43,-52.16 21.23,2.77 41.71,9.35 61.5,17.25 5.74,2.29 21.52,6.91 33.39,12.67 -32.7,69.53 -32.41,151.91 -25.69,226.99"
         style="fill:#ebeae7;fill-opacity:1;fill-rule:nonzero;stroke:none"
         id="path204" /><path
         d="m 3508.24,1274.47 c -1.36,50.98 3.86,101.9 11.94,152.17 3.32,20.66 7.13,41.25 11.2,61.78 3.29,16.63 6.21,33.34 9.58,49.95 1.63,8.08 3.37,16.13 5.3,24.14 1.31,5.44 7.22,14.58 4.37,20.17 -1.84,3.6 -9.36,6.56 -12.8,8.57 -19.76,11.57 -41.7,18.2 -61.84,28.93 -5.74,3.04 -11.41,6.19 -17.1,9.3 -1.14,0.62 -16.17,9.5 -16.15,4.82 0.08,-17.58 -5.23,-35.46 -11.11,-51.58 -4.6,-12.6 -9.45,-25.65 -17.13,-36.73 -4.59,-6.63 -11.28,-11.77 -16.67,-17.75 1,-25.45 2,-50.9 2.01,-76.38 0.01,-48.34 -3.79,-96.66 -5.2,-144.98 -1.48,-50.37 -1.81,-101.55 5.43,-151.53 3.59,-24.85 8.4,-49.2 12.13,-74 4.15,-27.56 13.29,-51.06 23.37,-76.67 3.07,-7.801 7.35,-6.532 14.33,-4.17 12.93,4.38 26.7,4.9 39.89,8.14 27.65,6.77 58.01,28.81 71.31,54.18 12.19,23.26 -9.52,41.26 -20.06,59.96 -26.09,46.32 -31.41,99.46 -32.8,151.68"
         style="fill:#f8a018;fill-opacity:1;fill-rule:nonzero;stroke:none"
         id="path206" /><path
         d="m 3340.16,1504.14 c -19.8,24.1 -30.83,51.55 -37.96,82.45 -4.26,18.45 -10.02,45.01 -4.93,65.17 -1.34,0.17 -2.64,0.41 -4.07,0.98 -20.04,-7.67 -40.09,-15.47 -60.55,-21.98 -13.92,-4.43 -27.84,-8.92 -41.44,-14.25 -11.68,-4.58 -27.08,-8.97 -35.66,-18.62 -1.06,-1.19 -3.6,-2.94 -2.7,-4.88 6.69,-14.56 11.49,-30 16.2,-45.28 18.34,-59.41 36.64,-115.28 40.51,-177.98 2.97,-48.07 -1.51,-95.04 -6.02,-142.79 -2.22,-23.42 -10.63,-46.02 -22.1,-66.43 -11.27,-20.04 -29.39,-37.53 -36.33,-59.77 -5.82,-18.62 0.79,-34.28 16.02,-45.65 11.14,-8.31 22.46,-16.36 33.89,-24.27 10.83,-7.5 23.52,-10.88 36.12,-14.72 27.2,-8.27 55.18,-13.94 83.45,-16.901 8.58,-0.899 5.79,12.531 6.04,18.331 0.83,18.95 -0.46,37.3 -0.46,56.18 -0.1,31.04 -0.19,62.08 -0.19,93.12 -0.8,48.28 0.64,96.44 3.91,144.61 4.36,64.32 10.98,128.45 16.27,192.68"
         style="fill:#f8a018;fill-opacity:1;fill-rule:nonzero;stroke:none"
         id="path208" /><path
         d="m 3243.75,1163.59 c -4.93,26.15 -10.56,52.15 -18.51,77.46 -6.22,19.81 -13.78,39.2 -23.31,57.49 -11.28,21.64 -14.87,31.58 -8.15,56.79 17.37,65.14 40.53,171.8 -8.07,228.3 -17.76,20.67 -39.95,18 -45.15,-9.27 -6.88,-36.06 -13.38,-72.2 -20.12,-108.28 l -11.18,-59.95 c -6.6,-35.34 -13.21,-70.75 -16.86,-106.58 -0.62,-6.17 -1.16,-12.46 -0.07,-18.57 1.35,-7.55 5.1,-14.33 8.79,-20.94 27.56,-49.39 55.13,-98.77 82.69,-148.16 19.94,17.29 40.46,33.94 59.94,51.71"
         style="fill:#ebeae7;fill-opacity:1;fill-rule:nonzero;stroke:none"
         id="path210" /><path
         d="m 3244.79,1176.51 c 0.54,0.46 1.18,0.95 1.89,0.91 0.95,-0.04 1.59,-0.96 2.07,-1.78 2.93,-4.96 5.85,-9.91 8.78,-14.87 0.88,-1.5 1.79,-3.06 1.94,-4.8 0.34,-3.8 -2.89,-6.87 -5.85,-9.27 -20.85,-16.89 -42.62,-32.64 -65.19,-47.15 -5.98,-3.84 -7.42,0.95 -9.95,5.8 -1.87,3.58 -3.78,7.4 -3.47,11.43 0.05,0.62 0.16,1.27 0.54,1.77 0.33,0.44 0.84,0.73 1.33,1 4.86,2.67 8.3,6.06 12.48,9.7 4.26,3.71 9.06,7.06 13.05,11.06 14.02,12.2 28.14,24.26 42.38,36.2"
         style="fill:#f0b34d;fill-opacity:1;fill-rule:nonzero;stroke:none"
         id="path212" /><path
         d="m 3537.89,1114.34 c 2.85,4.12 -3.62,15.56 -5.75,19.36 -1.51,2.69 -3.18,5.28 -5,7.78 -4.52,6.2 -9.95,11.67 -15.36,17.13 -2.89,2.91 -5.77,5.82 -8.66,8.73 -4.99,5.02 -9.98,10.04 -14.96,15.07 -0.76,0.77 -1.58,1.57 -2.63,1.86 -1.15,0.32 -2.37,-0.05 -3.48,-0.46 -4.01,-1.47 -13.34,-6.62 -10.77,-12.6 0.7,-1.64 4,-3.26 5.33,-4.63 4.04,-4.14 7.69,-8.67 11.75,-12.81 9.54,-9.72 19.83,-18.69 30.75,-26.83 5.72,-4.26 12.16,-9.91 18.78,-12.6"
         style="fill:#f0b34d;fill-opacity:1;fill-rule:nonzero;stroke:none"
         id="path214" /><path
         d="m 3330.42,1496.88 c 0,-5.18 -4.2,-9.38 -9.38,-9.38 -5.18,0 -9.37,4.2 -9.37,9.38 0,5.17 4.19,9.37 9.37,9.37 5.18,0 9.38,-4.2 9.38,-9.37"
         style="fill:#172642;fill-opacity:1;fill-rule:nonzero;stroke:none"
         id="path216" /><path
         d="m 3321.04,1399.79 c 0,-5.18 -4.19,-9.38 -9.37,-9.38 -5.19,0 -9.38,4.2 -9.38,9.38 0,5.18 4.19,9.37 9.38,9.37 5.18,0 9.37,-4.19 9.37,-9.37"
         style="fill:#172642;fill-opacity:1;fill-rule:nonzero;stroke:none"
         id="path218" /><path
         d="m 3313.96,1302.71 c 0,-5.18 -4.19,-9.37 -9.38,-9.37 -5.18,0 -9.37,4.19 -9.37,9.37 0,5.18 4.19,9.38 9.37,9.38 5.19,0 9.38,-4.2 9.38,-9.38"
         style="fill:#172642;fill-opacity:1;fill-rule:nonzero;stroke:none"
         id="path220" /><path
         d="m 3313.96,1184.39 c 0,-5.18 -4.19,-9.37 -9.38,-9.37 -5.18,0 -9.37,4.19 -9.37,9.37 0,5.18 4.19,9.38 9.37,9.38 5.19,0 9.38,-4.2 9.38,-9.38"
         style="fill:#172642;fill-opacity:1;fill-rule:nonzero;stroke:none"
         id="path222" /><path
         d="m 3313.96,1076.43 c 0,-5.18 -4.19,-9.38 -9.38,-9.38 -5.18,0 -9.37,4.2 -9.37,9.38 0,5.17 4.19,9.37 9.37,9.37 5.19,0 9.38,-4.2 9.38,-9.37"
         style="fill:#172642;fill-opacity:1;fill-rule:nonzero;stroke:none"
         id="path224" /></g></g></svg>
