<?xml version="1.0" encoding="UTF-8" standalone="no"?>
<!-- Created with Inkscape (http://www.inkscape.org/) -->

<svg
   version="1.1"
   id="svg2"
   xml:space="preserve"
   width="5333.3335"
   height="5742.5732"
   viewBox="0 0 5333.3335 5742.5732"
   sodipodi:docname="vecteezy_article-blog-story-typewriter-writer-flat-color-icon-vector_13139339.eps"
   xmlns:inkscape="http://www.inkscape.org/namespaces/inkscape"
   xmlns:sodipodi="http://sodipodi.sourceforge.net/DTD/sodipodi-0.dtd"
   xmlns="http://www.w3.org/2000/svg"
   xmlns:svg="http://www.w3.org/2000/svg"><defs
     id="defs6" /><sodipodi:namedview
     id="namedview4"
     pagecolor="#ffffff"
     bordercolor="#666666"
     borderopacity="1.0"
     inkscape:pageshadow="2"
     inkscape:pageopacity="0.0"
     inkscape:pagecheckerboard="0" /><g
     id="g8"
     inkscape:groupmode="layer"
     inkscape:label="ink_ext_XXXXXX"
     transform="matrix(1.3333333,0,0,-1.3333333,0,5742.5733)"><g
       id="g10"
       transform="scale(0.1)"><path
         d="m 8278.96,26139.1 c -154.36,0 -279.28,125 -279.28,279.3 v 9488.5 c 0,153.9 124.92,278.9 279.28,278.9 154.46,0 279.42,-125 279.42,-278.9 v -9488.5 c 0,-154.3 -124.96,-279.3 -279.42,-279.3"
         style="fill:#9da8db;fill-opacity:1;fill-rule:nonzero;stroke:none"
         id="path12" /><path
         d="m 30976.5,26139.1 c -154.4,0 -279.3,125 -279.3,279.3 v 9488.5 c 0,153.9 124.9,278.9 279.3,278.9 154.4,0 278.6,-125 278.6,-278.9 v -9488.5 c 0,-154.3 -124.2,-279.3 -278.6,-279.3"
         style="fill:#9da8db;fill-opacity:1;fill-rule:nonzero;stroke:none"
         id="path14" /><path
         d="m 26511.4,26418.4 v -486.6 c 0,-229.5 -12.1,-456.4 -35.7,-681.1 h -61.5 c -105,-1224.5 -549.2,-2360.1 -1242.3,-3313.6 -21.7,-29 -43.4,-58.5 -66,-86.7 -1195.5,-1557.7 -3050.2,-2611.7 -5142.8,-2720.7 -119.6,-6.9 -240.3,-9.5 -360.9,-9.5 -118.8,0 -237.7,2.6 -354.9,9.5 -1985.7,107.2 -3773.8,1107.5 -4962.3,2596.2 -779,994.6 -1284,2209.2 -1397.6,3524.8 h -60.7 c -24.3,224.7 -36.5,451.6 -36.5,681.1 v 486.6 h 13721.2"
         style="fill:#3c4352;fill-opacity:1;fill-rule:nonzero;stroke:none"
         id="path16" /><path
         d="m 38790.5,29673.9 v -2325.4 h -1395.8 v 2325.4 h 1395.8"
         style="fill:#9da8db;fill-opacity:1;fill-rule:nonzero;stroke:none"
         id="path18" /><path
         d="m 37394.7,27348.5 v -1116.1 h -1395.1 v 4558.1 h 1395.1 v -1116.6 -2325.4"
         style="fill:#bdc8ea;fill-opacity:1;fill-rule:nonzero;stroke:none"
         id="path20" /><path
         d="m 35255.3,7348.4 -1860,15442 c -93.7,1395.5 -1116.6,2511.5 -2418.8,2511.5 h -3084 c -247.3,-4255.7 -3865.8,-7720.7 -8265.1,-7720.7 -2232.3,0 -4278.8,907.1 -5767.5,2383.1 -1385.4,1376 -2287.7,3245.5 -2404,5337.6 H 8371.82 c -1302.18,0 -2325.92,-1116 -2418.64,-2511.5 L 4093.05,7348.4 C 3906.54,6046.3 5208.81,4930.3 6604.69,4930.3 H 32743.8 c 1395.1,0 2698,1116 2511.5,2418.1"
         style="fill:#3c4352;fill-opacity:1;fill-rule:nonzero;stroke:none"
         id="path22" /><path
         d="m 33208.7,14325.3 h -2511.5 c 0,930.4 557.9,1674.3 1209.3,1674.3 744.4,0 1302.2,-743.9 1302.2,-1674.3"
         style="fill:#dbe0f0;fill-opacity:1;fill-rule:nonzero;stroke:none"
         id="path24" /><path
         d="m 33208.7,11069.4 h -2511.5 c 0,930.5 557.9,1674.4 1209.3,1674.4 744.4,0 1302.2,-743.9 1302.2,-1674.4"
         style="fill:#dbe0f0;fill-opacity:1;fill-rule:nonzero;stroke:none"
         id="path26" /><path
         d="m 33208.7,7814 h -2511.5 c 0,837.2 557.9,1581 1209.3,1581 744.4,0 1302.2,-743.8 1302.2,-1581"
         style="fill:#dbe0f0;fill-opacity:1;fill-rule:nonzero;stroke:none"
         id="path28" /><path
         d="m 29022.9,14325.3 h -2511.5 c 0,930.4 557.8,1674.3 1302.2,1674.3 651.5,0 1209.3,-743.9 1209.3,-1674.3"
         style="fill:#dbe0f0;fill-opacity:1;fill-rule:nonzero;stroke:none"
         id="path30" /><path
         d="m 29022.9,11069.4 h -2511.5 c 0,930.5 557.8,1674.4 1302.2,1674.4 651.5,0 1209.3,-743.9 1209.3,-1674.4"
         style="fill:#dbe0f0;fill-opacity:1;fill-rule:nonzero;stroke:none"
         id="path32" /><path
         d="m 29022.9,7814 h -2511.5 c 0,837.2 557.8,1581 1302.2,1581 651.5,0 1209.3,-743.8 1209.3,-1581"
         style="fill:#dbe0f0;fill-opacity:1;fill-rule:nonzero;stroke:none"
         id="path34" /><path
         d="m 27906.3,26418.4 v -651.5 c 0,-156.2 -4.3,-310.5 -13.8,-465 h -1694.4 c 22.7,214.8 33.9,431.6 33.9,651.1 v 465.4 h 1674.3"
         style="fill:#50596d;fill-opacity:1;fill-rule:nonzero;stroke:none"
         id="path36" /><path
         d="m 26198.1,25301.9 h 1694.4 c -247.3,-4255.7 -3865.8,-7720.7 -8265.1,-7720.7 -2232.3,0 -4278.8,907.1 -5767.5,2383.1 -1385.4,1376 -2287.7,3245.5 -2404,5337.6 h 1694.3 c 130.2,-1255 633.3,-2416.5 1395.1,-3369.1 1116.6,-1427 2824.7,-2380.6 4742.9,-2482 112.8,-6.5 226.4,-9.2 339.2,-9.2 115.4,0 230.7,2.7 345.2,9.2 2024,102.2 3794.6,1107 4916.4,2600.9 21.7,26.9 42.5,55.1 62.5,82.8 680,912.7 1125.1,2000.2 1246.6,3167.4"
         style="fill:#50596d;fill-opacity:1;fill-rule:nonzero;stroke:none"
         id="path38" /><path
         d="M 26232,28557.8 V 26418.4 H 13116.5 v 2139.4 H 26232"
         style="fill:#bdc8ea;fill-opacity:1;fill-rule:nonzero;stroke:none"
         id="path40" /><path
         d="M 26232,30139.4 V 28557.8 H 13116.5 v 1581.6 H 26232"
         style="fill:#9da8db;fill-opacity:1;fill-rule:nonzero;stroke:none"
         id="path42" /><path
         d="M 26232,43069.3 V 30139.4 H 13116.5 V 43069.3 H 26232"
         style="fill:#dbe0f0;fill-opacity:1;fill-rule:nonzero;stroke:none"
         id="path44" /><path
         d="m 24929.8,14325.3 h -2511.6 c 0,930.4 557.8,1674.3 1302.1,1674.3 651.7,0 1209.5,-743.9 1209.5,-1674.3"
         style="fill:#dbe0f0;fill-opacity:1;fill-rule:nonzero;stroke:none"
         id="path46" /><path
         d="m 24929.8,11069.4 h -2511.6 c 0,930.5 557.8,1674.4 1302.1,1674.4 651.7,0 1209.5,-743.9 1209.5,-1674.4"
         style="fill:#dbe0f0;fill-opacity:1;fill-rule:nonzero;stroke:none"
         id="path48" /><path
         d="m 24929.8,7814 h -2511.6 c 0,837.2 557.8,1581 1302.1,1581 651.7,0 1209.5,-743.8 1209.5,-1581"
         style="fill:#dbe0f0;fill-opacity:1;fill-rule:nonzero;stroke:none"
         id="path50" /><path
         d="m 20836.7,14325.3 h -2511.5 c 0,930.4 558.6,1674.3 1302.2,1674.3 651.5,0 1209.3,-743.9 1209.3,-1674.3"
         style="fill:#dbe0f0;fill-opacity:1;fill-rule:nonzero;stroke:none"
         id="path52" /><path
         d="m 20836.7,11069.4 h -2511.5 c 0,930.5 558.6,1674.4 1302.2,1674.4 651.5,0 1209.3,-743.9 1209.3,-1674.4"
         style="fill:#dbe0f0;fill-opacity:1;fill-rule:nonzero;stroke:none"
         id="path54" /><path
         d="m 20836.7,7814 h -2511.5 c 0,837.2 558.6,1581 1302.2,1581 651.5,0 1209.3,-743.8 1209.3,-1581"
         style="fill:#dbe0f0;fill-opacity:1;fill-rule:nonzero;stroke:none"
         id="path56" /><path
         d="m 16743.6,14325.3 h -2511.5 c 0,930.4 558.6,1674.3 1209.4,1674.3 744.3,0 1302.1,-743.9 1302.1,-1674.3"
         style="fill:#dbe0f0;fill-opacity:1;fill-rule:nonzero;stroke:none"
         id="path58" /><path
         d="m 16743.6,11069.4 h -2511.5 c 0,930.5 558.6,1674.4 1209.4,1674.4 744.3,0 1302.1,-743.9 1302.1,-1674.4"
         style="fill:#dbe0f0;fill-opacity:1;fill-rule:nonzero;stroke:none"
         id="path60" /><path
         d="m 16743.6,7814 h -2511.5 c 0,837.2 558.6,1581 1209.4,1581 744.3,0 1302.1,-743.8 1302.1,-1581"
         style="fill:#dbe0f0;fill-opacity:1;fill-rule:nonzero;stroke:none"
         id="path62" /><path
         d="m 12650.5,14325.3 h -2511.4 c 0,930.4 558.6,1674.3 1209.3,1674.3 744.3,0 1302.1,-743.9 1302.1,-1674.3"
         style="fill:#dbe0f0;fill-opacity:1;fill-rule:nonzero;stroke:none"
         id="path64" /><path
         d="m 12650.5,11069.4 h -2511.4 c 0,930.5 558.6,1674.4 1209.3,1674.4 744.3,0 1302.1,-743.9 1302.1,-1674.4"
         style="fill:#dbe0f0;fill-opacity:1;fill-rule:nonzero;stroke:none"
         id="path66" /><path
         d="m 12650.5,7814 h -2511.4 c 0,837.2 558.6,1581 1209.3,1581 744.3,0 1302.1,-743.8 1302.1,-1581"
         style="fill:#dbe0f0;fill-opacity:1;fill-rule:nonzero;stroke:none"
         id="path68" /><path
         d="m 36929.8,6604.5 -2046.5,17023.1 c -185.9,1488.2 -1209.5,2790.8 -2790.2,2790.8 h -1116.6 -3070.2 v -651.5 c 0,-156.2 -4.3,-310.5 -13.8,-465 h 3084 c 1302.2,0 2325.1,-1116 2418.8,-2511.5 l 1860,-15442 C 35441.8,6046.3 34138.9,4930.3 32743.8,4930.3 H 6604.69 c -1395.88,0 -2698.15,1116 -2511.64,2418.1 l 1860.13,15442 c 92.72,1395.5 1116.46,2511.5 2418.64,2511.5 h 3084.08 1694.3 c -23.3,214.8 -33.7,431.6 -33.7,651.1 v 465.4 h -1674.4 -3070.28 -92.86 -1023.6 c -1580.71,0 -2604.45,-1302.6 -2790.08,-2790.8 L 2418.78,6604.5 C 2232.22,5023.1 3628.1,3813.7 5208.81,3813.7 h 27534.99 1395.1 c 1581.4,0 2977.3,1209.4 2790.9,2790.8"
         style="fill:#50596d;fill-opacity:1;fill-rule:nonzero;stroke:none"
         id="path70" /><path
         d="M 8464.68,14325.3 H 6045.9 c 0,930.4 558.79,1674.3 1209.46,1674.3 651.51,0 1209.32,-743.9 1209.32,-1674.3"
         style="fill:#dbe0f0;fill-opacity:1;fill-rule:nonzero;stroke:none"
         id="path72" /><path
         d="M 8464.68,11069.4 H 6045.9 c 0,930.5 558.79,1674.4 1209.46,1674.4 651.51,0 1209.32,-743.9 1209.32,-1674.4"
         style="fill:#dbe0f0;fill-opacity:1;fill-rule:nonzero;stroke:none"
         id="path74" /><path
         d="M 8464.68,7814 H 6045.9 c 0,837.2 558.79,1581 1209.46,1581 651.51,0 1209.32,-743.8 1209.32,-1581"
         style="fill:#dbe0f0;fill-opacity:1;fill-rule:nonzero;stroke:none"
         id="path76" /><path
         d="M 3162.17,28557.8 V 26232.4 H 1859.99 v 4558.1 h 1302.18 v -2232.7"
         style="fill:#bdc8ea;fill-opacity:1;fill-rule:nonzero;stroke:none"
         id="path78" /><path
         d="M 1859.99,29673.9 V 27348.5 H 465 v 2325.4 h 1394.99"
         style="fill:#9da8db;fill-opacity:1;fill-rule:nonzero;stroke:none"
         id="path80" /><path
         d="M 35999.6,28278.9 H 3162.17 c -153.52,0 -278.44,125 -278.44,278.9 0,154.1 124.92,278.9 278.44,278.9 H 35999.6 c 154.6,0 279.5,-124.8 279.5,-278.9 0,-153.9 -124.9,-278.9 -279.5,-278.9"
         style="fill:#bdc8ea;fill-opacity:1;fill-rule:nonzero;stroke:none"
         id="path82" /><path
         d="m 19813.8,40929.9 h -4465.2 c -154.4,0 -279.3,124.9 -279.3,278.9 0,154.5 124.9,279.3 279.3,279.3 h 4465.2 c 153.6,0 278.7,-124.8 278.7,-279.3 0,-154 -125.1,-278.9 -278.7,-278.9"
         style="fill:#b1b7d5;fill-opacity:1;fill-rule:nonzero;stroke:none"
         id="path84" /><path
         d="m 22138.9,38418.3 h -6790.3 c -154.4,0 -279.3,125 -279.3,279 0,153.9 124.9,278.9 279.3,278.9 h 6790.3 c 154.4,0 279.3,-125 279.3,-278.9 0,-154 -124.9,-279 -279.3,-279"
         style="fill:#b1b7d5;fill-opacity:1;fill-rule:nonzero;stroke:none"
         id="path86" /><path
         d="m 23906.9,36371.8 h -8558.3 c -154.4,0 -279.3,124.9 -279.3,279 0,154.3 124.9,279.3 279.3,279.3 h 8558.3 c 153.6,0 278.5,-125 278.5,-279.3 0,-154.1 -124.9,-279 -278.5,-279"
         style="fill:#b1b7d5;fill-opacity:1;fill-rule:nonzero;stroke:none"
         id="path88" /><path
         d="m 20278.9,34325.3 h -4930.3 c -154.4,0 -279.3,124.9 -279.3,278.9 0,154.4 124.9,279.3 279.3,279.3 h 4930.3 c 154.4,0 279.3,-124.9 279.3,-279.3 0,-154 -124.9,-278.9 -279.3,-278.9"
         style="fill:#b1b7d5;fill-opacity:1;fill-rule:nonzero;stroke:none"
         id="path90" /><path
         d="m 23906.9,32185.8 h -8558.3 c -154.4,0 -279.3,124.5 -279.3,279 0,154 124.9,278.9 279.3,278.9 h 8558.3 c 153.6,0 278.5,-124.9 278.5,-278.9 0,-154.5 -124.9,-279 -278.5,-279"
         style="fill:#b1b7d5;fill-opacity:1;fill-rule:nonzero;stroke:none"
         id="path92" /><path
         d="M 28092.9,1674.3 H 1302.18 c -154.36,0 -279.28,124.9 -279.28,279 0,154.5 124.92,279.3 279.28,279.3 H 28092.9 c 154.4,0 279.3,-124.8 279.3,-279.3 0,-154.1 -124.9,-279 -279.3,-279"
         style="fill:#3c4352;fill-opacity:1;fill-rule:nonzero;stroke:none"
         id="path94" /><path
         d="M 35534.7,0 H 17023 c -154.5,0 -279.4,125 -279.4,278.902 0,154.399 124.9,278.899 279.4,278.899 h 18511.7 c 154.4,0 279.3,-124.5 279.3,-278.899 C 35814,125 35689.1,0 35534.7,0"
         style="fill:#3c4352;fill-opacity:1;fill-rule:nonzero;stroke:none"
         id="path96" /><path
         d="m 39720.5,0 h -2325.8 c -153.5,0 -278.5,125 -278.5,278.902 0,154.399 125,278.899 278.5,278.899 h 2325.8 c 154.4,0 279.5,-124.5 279.5,-278.899 C 40000,125 39874.9,0 39720.5,0"
         style="fill:#3c4352;fill-opacity:1;fill-rule:nonzero;stroke:none"
         id="path98" /><path
         d="M 9023.33,92.8008 H 279.418 C 124.922,92.8008 0,217.801 0,372.098 0,526.199 124.922,651.102 279.418,651.102 H 9023.33 c 153.61,0 278.54,-124.903 278.54,-279.004 0,-154.297 -124.93,-279.2972 -278.54,-279.2972"
         style="fill:#3c4352;fill-opacity:1;fill-rule:nonzero;stroke:none"
         id="path100" /><path
         d="M 30976.5,29859.9 H 8278.96 c -154.36,0 -279.28,125.1 -279.28,279.5 0,154 124.92,278.9 279.28,278.9 H 30976.5 c 154.4,0 278.6,-124.9 278.6,-278.9 0,-154.4 -124.2,-279.5 -278.6,-279.5"
         style="fill:#9da8db;fill-opacity:1;fill-rule:nonzero;stroke:none"
         id="path102" /></g></g></svg>
