<?xml version="1.0" encoding="UTF-8" standalone="no"?>
<!-- Created with Inkscape (http://www.inkscape.org/) -->

<svg
   version="1.1"
   id="svg2"
   xml:space="preserve"
   width="6666.6665"
   height="6666.6665"
   viewBox="0 0 6666.6665 6666.6665"
   sodipodi:docname="vecteezy_free-quote-box-frame-with-white-color-quote-box-icon_6068071.eps"
   xmlns:inkscape="http://www.inkscape.org/namespaces/inkscape"
   xmlns:sodipodi="http://sodipodi.sourceforge.net/DTD/sodipodi-0.dtd"
   xmlns="http://www.w3.org/2000/svg"
   xmlns:svg="http://www.w3.org/2000/svg"><defs
     id="defs6" /><sodipodi:namedview
     id="namedview4"
     pagecolor="#ffffff"
     bordercolor="#666666"
     borderopacity="1.0"
     inkscape:pageshadow="2"
     inkscape:pageopacity="0.0"
     inkscape:pagecheckerboard="0" /><g
     id="g8"
     inkscape:groupmode="layer"
     inkscape:label="ink_ext_XXXXXX"
     transform="matrix(1.3333333,0,0,-1.3333333,0,6666.6667)"><g
       id="g10"
       transform="scale(0.1)"><path
         d="M 50000,0 H 0 V 50000 H 50000 V 0"
         style="fill:#f68815;fill-opacity:1;fill-rule:nonzero;stroke:none"
         id="path12" /><path
         d="m 34938.3,36108 -18855.5,2407.1 c -2767.7,353.3 -5045.9,-2149.2 -4435,-4871.6 l 3715.4,-16556.3 c 436,-1942.8 2227.5,-3274.4 4213.5,-3131.9 l 10040,720.6 c -7.9,-455.9 -54.8,-955.9 -164.7,-1486.9 -299,-1445.1 -950.9,-2575.1 -1582.4,-3388.5 -191,-246 108.2,-570.9 369.1,-400.7 938.9,612.3 1995.9,1447 3010.9,2573.3 939.4,1042.5 1612.9,2079.7 2094,2970.2 l 337.8,24.3 c 1984.1,142.4 3566.3,1713.5 3722.7,3696.6 l 1035.4,13137 c 168.6,2139.7 -1372.2,4035 -3501.2,4306.8"
         style="fill:#ffffff;fill-opacity:1;fill-rule:nonzero;stroke:none"
         id="path14" /><path
         d="m 19664.5,37934.1 c 0,-1498.6 -1214.9,-2713.5 -2713.5,-2713.5 -1498.6,0 -2713.4,1214.9 -2713.4,2713.5 0,1498.6 1214.8,2713.5 2713.4,2713.5 1498.6,0 2713.5,-1214.9 2713.5,-2713.5"
         style="fill:#211d1d;fill-opacity:1;fill-rule:nonzero;stroke:none"
         id="path16" /><path
         d="M 18293.4,37763.2 V 36611 h -1064 v 909.6 c 0,492.5 58.8,849 176.4,1069.5 154.4,294 398.8,516.4 733.3,667.1 l 242.5,-385.9 c -202.1,-84.6 -351,-210.4 -446.5,-377.6 -95.6,-167.3 -148.9,-410.8 -159.9,-730.5 z m -1709,0 V 36611 h -1064 v 909.6 c 0,492.5 58.8,849 176.4,1069.5 154.4,294 398.8,516.4 733.2,667.1 l 242.6,-385.9 c -202.1,-84.6 -351,-210.4 -446.5,-377.6 -95.7,-167.3 -148.9,-410.8 -159.9,-730.5 h 518.2"
         style="fill:#ffffff;fill-opacity:1;fill-rule:nonzero;stroke:none"
         id="path18" /></g></g></svg>
